<?xml version="1.0" encoding="UTF-8"?><svg xmlns="http://www.w3.org/2000/svg" xmlns:xlink="http://www.w3.org/1999/xlink" viewBox="0 0 1366 768"><defs><style>.cls-1{fill:#34a1c8;}.cls-2{fill:#78899b;}.cls-3{fill:#325f8d;}.cls-4{fill:#3b546f;}.cls-5{fill:#3d546b;}.cls-6{fill:#336992;}.cls-7{fill:#2265a6;}.cls-8{fill:url(#radial-gradient-2);}.cls-9{fill:#8ce1f6;}.cls-10{fill:url(#linear-gradient-8);}.cls-11{fill:url(#linear-gradient-7);}.cls-12{fill:url(#linear-gradient-5);}.cls-13{fill:url(#linear-gradient-6);}.cls-14{fill:url(#linear-gradient-9);}.cls-15{fill:url(#linear-gradient-4);}.cls-16{fill:url(#linear-gradient-3);}.cls-17{fill:url(#linear-gradient-2);}.cls-18{mix-blend-mode:multiply;opacity:.8;}.cls-19{fill:#345577;}.cls-20{fill:#1d5d84;}.cls-21{fill:url(#radial-gradient);}.cls-22{fill:url(#linear-gradient);}.cls-23{isolation:isolate;}.cls-24{fill:#274361;}.cls-25{fill:#164a81;}.cls-26{fill:#445870;}.cls-27{fill:#2684c2;}.cls-28{fill:url(#linear-gradient-10);}.cls-29{fill:url(#linear-gradient-11);}.cls-30{fill:url(#linear-gradient-12);}.cls-31{fill:url(#linear-gradient-13);}.cls-32{fill:url(#linear-gradient-19);}.cls-33{fill:url(#linear-gradient-14);}.cls-34{fill:url(#linear-gradient-21);}.cls-35{fill:url(#linear-gradient-20);}.cls-36{fill:url(#linear-gradient-22);}.cls-37{fill:url(#linear-gradient-23);}.cls-38{fill:url(#linear-gradient-28);}.cls-39{fill:url(#linear-gradient-25);}.cls-40{fill:url(#linear-gradient-32);}.cls-41{fill:url(#linear-gradient-31);}.cls-42{fill:url(#linear-gradient-33);}.cls-43{fill:url(#linear-gradient-30);}.cls-44{fill:url(#linear-gradient-15);}.cls-45{fill:url(#linear-gradient-16);}.cls-46{fill:url(#linear-gradient-17);}.cls-47{fill:url(#linear-gradient-18);}.cls-48{fill:url(#linear-gradient-27);}.cls-49{fill:url(#linear-gradient-24);}.cls-50{fill:url(#linear-gradient-26);}.cls-51{fill:url(#linear-gradient-29);}.cls-52{fill:#0d2e51;}.cls-53{fill:#29abe2;}.cls-54{fill:#87ddfb;}.cls-55{fill:#298fba;}.cls-56{fill:#506f89;}.cls-57{fill:#80abcb;}.cls-58{fill:#5c82a6;}.cls-59{fill:#60c0f0;}.cls-60{fill:#608aaf;}.cls-61{fill:#6b7b8c;}.cls-62{fill:#145c8d;}.cls-63{fill:#36688e;}.cls-64{fill:#22548b;}.cls-65{fill:#072d56;}.cls-66{fill:#3d5571;}</style><linearGradient id="linear-gradient" x1="990.48" y1="438.48" x2="282.91" y2="373.15" gradientUnits="userSpaceOnUse"><stop offset="0" stop-color="#8da6b0"/><stop offset=".27" stop-color="#c3d6e0"/><stop offset=".43" stop-color="#7b8e9d"/><stop offset=".65" stop-color="#c2d4dd"/><stop offset=".79" stop-color="#627282"/><stop offset=".9" stop-color="#8698a6"/><stop offset="1" stop-color="#5d7089"/></linearGradient><linearGradient id="linear-gradient-2" x1="769.47" y1="510.52" x2="878.96" y2="372.69" xlink:href="#linear-gradient"/><linearGradient id="linear-gradient-3" x1="693.48" y1="349.94" x2="1403.41" y2="624.89" xlink:href="#linear-gradient"/><linearGradient id="linear-gradient-4" x1="738.61" y1="381.1" x2="1001.53" y2="381.1" gradientUnits="userSpaceOnUse"><stop offset="0" stop-color="#28a5ed"/><stop offset=".29" stop-color="#56b3d4"/><stop offset=".53" stop-color="#72d5ea"/><stop offset=".73" stop-color="#66cfe7"/><stop offset="1" stop-color="#32a8cc"/></linearGradient><linearGradient id="linear-gradient-5" x1="551.56" y1="622.2" x2="854.84" y2="401.83" xlink:href="#linear-gradient"/><radialGradient id="radial-gradient" cx="928.14" cy="217.33" fx="928.14" fy="217.33" r="268.13" gradientUnits="userSpaceOnUse"><stop offset="0" stop-color="#377dab"/><stop offset=".14" stop-color="#9be2ed"/><stop offset=".29" stop-color="#56b3d4"/><stop offset=".54" stop-color="#80cfe3"/><stop offset=".83" stop-color="#66cfe7"/><stop offset=".92" stop-color="#7ecee2"/><stop offset=".94" stop-color="#79cae2"/><stop offset=".96" stop-color="#6bc0e2"/><stop offset=".98" stop-color="#55afe4"/><stop offset="1" stop-color="#3698e5"/><stop offset="1" stop-color="#2f93e6"/></radialGradient><linearGradient id="linear-gradient-6" x1="424.11" y1="513.83" x2="1226.12" y2="306.05" gradientUnits="userSpaceOnUse"><stop offset="0" stop-color="#22548b"/><stop offset=".29" stop-color="#56b3d4"/><stop offset=".53" stop-color="#72d5ea"/><stop offset=".73" stop-color="#66cfe7"/><stop offset="1" stop-color="#32a8cc"/></linearGradient><linearGradient id="linear-gradient-7" x1="734.66" y1="559.37" x2="804.97" y2="466.32" xlink:href="#linear-gradient"/><linearGradient id="linear-gradient-8" x1="584.65" y1="606.14" x2="294.49" y2="341.17" gradientUnits="userSpaceOnUse"><stop offset="0" stop-color="#8c9db1"/><stop offset=".39" stop-color="#90a1b4"/><stop offset=".7" stop-color="#e1f2f3"/><stop offset=".87" stop-color="#42b0d1"/><stop offset="1" stop-color="#13325d"/></linearGradient><linearGradient id="linear-gradient-9" x1="433.65" y1="390.41" x2="1103.7" y2="306.46" gradientUnits="userSpaceOnUse"><stop offset="0" stop-color="#8c9db1"/><stop offset="1" stop-color="#13325d"/></linearGradient><linearGradient id="linear-gradient-10" x1="629.58" y1="721.08" x2="629.82" y2="721.08" gradientUnits="userSpaceOnUse"><stop offset="0" stop-color="#8da6b0"/><stop offset=".67" stop-color="#7b8e9d"/><stop offset="1" stop-color="#5d7089"/></linearGradient><linearGradient id="linear-gradient-11" x1="1084.39" y1="350.62" x2="1007.43" y2="369.16" gradientUnits="userSpaceOnUse"><stop offset="0" stop-color="#377dab"/><stop offset=".29" stop-color="#56b3d4"/><stop offset=".49" stop-color="#c7fffd"/><stop offset=".57" stop-color="#a8eff6"/><stop offset=".73" stop-color="#66cfe7"/><stop offset="1" stop-color="#32a8cc"/></linearGradient><linearGradient id="linear-gradient-12" x1="1001.2" y1="537.27" x2="352.67" y2="347.33" gradientUnits="userSpaceOnUse"><stop offset="0" stop-color="#377dab"/><stop offset=".14" stop-color="#9be2ed"/><stop offset=".29" stop-color="#56b3d4"/><stop offset=".54" stop-color="#80cfe3"/><stop offset=".73" stop-color="#66cfe7"/><stop offset=".86" stop-color="#7ecee2"/><stop offset="1" stop-color="#32a8cc"/></linearGradient><linearGradient id="linear-gradient-13" x1="1223.14" y1="9.32" x2="818.6" y2="634.24" gradientUnits="userSpaceOnUse"><stop offset="0" stop-color="#28a5ed"/><stop offset=".22" stop-color="#56b3d4"/><stop offset=".35" stop-color="#72d5ea"/><stop offset=".48" stop-color="#66cfe7"/><stop offset=".87" stop-color="#2f93e6"/><stop offset="1" stop-color="#22548b"/></linearGradient><linearGradient id="linear-gradient-14" x1="303.6" y1="453.96" x2="742.78" y2="515.35" gradientUnits="userSpaceOnUse"><stop offset="0" stop-color="#8da6b0"/><stop offset=".27" stop-color="#c3d6e0"/><stop offset=".49" stop-color="#7b8e9d"/><stop offset=".65" stop-color="#c2d4dd"/><stop offset=".79" stop-color="#627282"/><stop offset=".9" stop-color="#8698a6"/><stop offset="1" stop-color="#5d7089"/></linearGradient><linearGradient id="linear-gradient-15" x1="330.25" y1="503.07" x2="481.37" y2="452.7" xlink:href="#linear-gradient"/><linearGradient id="linear-gradient-16" x1="461.52" y1="112.31" x2="966.56" y2="112.31" gradientUnits="userSpaceOnUse"><stop offset="0" stop-color="#113c5f"/><stop offset=".49" stop-color="#17567f"/><stop offset="1" stop-color="#153863"/></linearGradient><linearGradient id="linear-gradient-17" x1="452.95" y1="111.97" x2="991.42" y2="111.97" gradientUnits="userSpaceOnUse"><stop offset="0" stop-color="#688baf"/><stop offset=".49" stop-color="#5881a4"/><stop offset="1" stop-color="#3f627e"/></linearGradient><linearGradient id="linear-gradient-18" x1="442.38" y1="234.34" x2="967.08" y2="65.39" xlink:href="#linear-gradient-14"/><linearGradient id="linear-gradient-19" x1="422.46" y1="228.3" x2="552.59" y2="649.11" xlink:href="#linear-gradient-9"/><linearGradient id="linear-gradient-20" x1="471.88" y1="115.52" x2="934.02" y2="115.52" xlink:href="#linear-gradient-11"/><linearGradient id="linear-gradient-21" x1="428.92" y1="233.93" x2="1057.78" y2="421.25" xlink:href="#linear-gradient-11"/><linearGradient id="linear-gradient-22" x1="1063.74" y1="611.61" x2="815.82" y2="165.34" gradientUnits="userSpaceOnUse"><stop offset="0" stop-color="#8c9db1"/><stop offset="1" stop-color="#091d38"/></linearGradient><linearGradient id="linear-gradient-23" x1="337.77" y1="207.32" x2="852.51" y2="196.31" xlink:href="#linear-gradient-14"/><radialGradient id="radial-gradient-2" cx="466.92" cy="335.39" fx="466.92" fy="335.39" r="235.35" gradientUnits="userSpaceOnUse"><stop offset=".73" stop-color="#e1f2f3"/><stop offset=".75" stop-color="#cadbdf"/><stop offset=".78" stop-color="#a7b8c1"/><stop offset=".81" stop-color="#8b9ba7"/><stop offset=".85" stop-color="#748594"/><stop offset=".89" stop-color="#657586"/><stop offset=".94" stop-color="#5b6b7e"/><stop offset="1" stop-color="#59697c"/></radialGradient><linearGradient id="linear-gradient-24" x1="993.37" y1="493.46" x2="1076.63" y2="529.14" gradientUnits="userSpaceOnUse"><stop offset="0" stop-color="#377dab"/><stop offset=".14" stop-color="#9be2ed"/><stop offset=".29" stop-color="#56b3d4"/><stop offset=".54" stop-color="#80cfe3"/><stop offset=".71" stop-color="#66cfe7"/><stop offset=".73" stop-color="#7ecee2"/><stop offset=".78" stop-color="#79cae2"/><stop offset=".85" stop-color="#6bc0e2"/><stop offset=".92" stop-color="#55afe4"/><stop offset=".99" stop-color="#3698e5"/><stop offset="1" stop-color="#2f93e6"/></linearGradient><linearGradient id="linear-gradient-25" x1="284.3" y1="428.29" x2="558.72" y2="444.55" xlink:href="#linear-gradient-4"/><linearGradient id="linear-gradient-26" x1="419.48" y1="322.56" x2="1090.92" y2="322.56" xlink:href="#linear-gradient-9"/><linearGradient id="linear-gradient-27" x1="924.79" y1="460.09" x2="510.01" y2="260.17" gradientUnits="userSpaceOnUse"><stop offset="0" stop-color="#8da6b0"/><stop offset=".27" stop-color="#c3d6e0"/><stop offset=".36" stop-color="#7b8e9d"/><stop offset=".6" stop-color="#e8f8f7"/><stop offset=".81" stop-color="#627282"/><stop offset=".95" stop-color="#8698a6"/><stop offset="1" stop-color="#5d7089"/></linearGradient><linearGradient id="linear-gradient-28" x1="509.53" y1="598.74" x2="1003.81" y2="504.29" xlink:href="#linear-gradient-10"/><linearGradient id="linear-gradient-29" x1="636.55" y1="718.64" x2="1040.05" y2="427.95" gradientUnits="userSpaceOnUse"><stop offset="0" stop-color="#7b8e9d"/><stop offset=".23" stop-color="#869ca8"/><stop offset=".34" stop-color="#8da6b0"/><stop offset="1" stop-color="#4a5b71"/></linearGradient><linearGradient id="linear-gradient-30" x1="1166.18" y1="399.43" x2="347.59" y2="405.72" gradientUnits="userSpaceOnUse"><stop offset="0" stop-color="#152e4d"/><stop offset=".29" stop-color="#56b3d4"/><stop offset=".49" stop-color="#c7fffd"/><stop offset=".57" stop-color="#a8eff6"/><stop offset=".73" stop-color="#66cfe7"/><stop offset="1" stop-color="#0d2c54"/></linearGradient><linearGradient id="linear-gradient-31" x1="711.29" y1="275.21" x2="361.05" y2="484.56" gradientUnits="userSpaceOnUse"><stop offset=".53" stop-color="#c3d6e0"/><stop offset="1" stop-color="#5d7089"/></linearGradient><linearGradient id="linear-gradient-32" x1="395.2" y1="515.58" x2="952.66" y2="515.58" xlink:href="#linear-gradient-12"/><linearGradient id="linear-gradient-33" x1="439.67" y1="401.7" x2="942.6" y2="300.17" xlink:href="#linear-gradient-6"/></defs><g class="cls-23"><g id="Layer_1"><path class="cls-22" d="M857.04,476.53c26.89,16.79,56.54,30.56,70.18,36.86,11.5,5.31,31.39,9.68,37.35,10.93,4.1-7.09,8.11-14.27,11.56-20.88-8.16-.28-29.44-2.26-55.69-14.35-33.76-15.54-57.19-31.1-67.51-39.67-10.32-8.57-46.52-38.48-66.11-57.19-17.79-16.99-62.97-59.65-71.13-67.36-5.05,4.62-10.49,9.65-15.92,14.83,5.63,5.51,40.76,39.84,60.99,58.38,22.04,20.2,69.39,61.65,96.28,78.44Z"/><path class="cls-26" d="M852.93,449.43c10.32,8.57,33.76,24.14,67.51,39.67,26.25,12.08,47.53,14.06,55.69,14.35,1.2-2.3,2.33-4.52,3.37-6.64-10.72,1.7-26.47.16-44.02-6.3-19.06-7.02-58.59-28.31-83.78-47.37-25.19-19.06-78.01-68.39-95.32-85.7-14.13-14.13-30.23-31.27-35.68-37.11-1.62,1.46-3.29,2.99-5.02,4.56,8.16,7.71,53.35,50.36,71.13,67.36,19.59,18.71,55.79,48.62,66.11,57.19Z"/><path class="cls-61" d="M823.59,461.99c18.76,15.5,58.24,37.23,84.74,49.43,21.78,10.03,46.12,15.09,54.1,16.57.72-1.22,1.43-2.45,2.14-3.68-5.96-1.24-25.85-5.62-37.35-10.93-13.64-6.3-43.29-20.07-70.18-36.86-26.89-16.79-74.25-58.24-96.28-78.44-20.23-18.54-55.36-52.87-60.99-58.38-.9.86-1.8,1.72-2.7,2.59,5.63,5.8,38.17,39.32,49.65,50.81,12.59,12.59,58.11,53.39,76.87,68.89Z"/><path class="cls-17" d="M821.63,468.08c25.45,18.16,52.6,35.74,77.26,46.49,23.31,10.17,50.12,17.4,60.41,18.72,1.04-1.74,2.08-3.51,3.13-5.29-7.98-1.49-32.32-6.55-54.1-16.57-26.5-12.2-65.98-33.93-84.74-49.43-18.76-15.5-64.28-56.29-76.87-68.89-11.49-11.49-44.03-45.01-49.65-50.81-2.89,2.78-5.75,5.58-8.53,8.37,7.09,6.55,35.63,33,49.92,47.29,16.4,16.4,57.72,51.97,83.17,70.12Z"/><path class="cls-16" d="M851.71,443.13c25.19,19.06,64.71,40.35,83.78,47.37,17.55,6.47,33.3,8.01,44.02,6.3.95-1.94,1.83-3.78,2.62-5.53-5.82,1.23-22.06,3.46-42.62-3.9-25.89-9.27-59.47-28.33-87.28-48.97-19.53-14.49-91.47-82.9-105.29-98.47-10.64-11.99-18.15-20.85-21.05-24.29-1.64,1.47-3.37,3.02-5.18,4.67,5.45,5.84,21.55,22.99,35.68,37.11,17.32,17.32,70.14,66.64,95.32,85.7Z"/><path class="cls-15" d="M759.74,323.41c5.62,5.42,26.12,23.61,37.14,34.28,11.02,10.67,35.42,35.24,43.29,42.24,7.87,7,32.44,30.08,43.9,38.22,11.46,8.13,29.27,17.4,40.73,19.83s39.2,2.82,52.14-1.03c9.62-2.86,18.7-8.25,22.73-10.83.64-2.12,1.26-4.3,1.86-6.52-2.55,2.42-8.07,7.23-14.36,10.19-8.66,4.07-38.28,12.63-63.47,5.15-25.19-7.48-45.67-23.91-61.94-38.99-16.27-15.09-62.83-60.34-78.44-76.08-13.58-13.7-37.2-32.76-43.09-37.47-.54.51-1.08,1.02-1.62,1.53,1.39,1.49,3.71,3.98,6.66,7.15,4.39,3.55,10.94,8.95,14.47,12.35Z"/><path class="cls-12" d="M852.23,438.41c27.81,20.64,61.39,39.7,87.28,48.97,20.55,7.36,36.79,5.13,42.62,3.9.44-.96.86-1.91,1.24-2.8.44-1.02.87-2.05,1.31-3.07-5.38.89-19.32,2.31-36.95-2.57-22.74-6.3-52.3-26.24-75.38-44.77-23.09-18.54-68.04-57.54-85.18-76.78-14.87-16.69-43.3-47.6-50.56-55.48-3.15,2.97-6.16,5.77-9.04,8.35-.54.48-1.12,1-1.68,1.51,2.9,3.45,10.41,12.3,21.05,24.29,13.82,15.57,85.76,83.98,105.29,98.47Z"/><path class="cls-21" d="M872.35,438.06c23.09,18.54,52.65,38.48,75.38,44.77,17.63,4.88,31.57,3.46,36.95,2.57,4.81-11.27,9.64-22.55,13.78-35.41-5.62,3.4-19.17,10.61-35.34,12.2-21.34,2.1-53.35-4.55-73.98-17.84-20.64-13.29-74.33-59.64-88.68-74.51-10.7-11.09-40.65-43.18-55.19-58.79-2.61-2.11-4.45-3.57-4.45-3.57,0,0,1.85,1.46,4.45,3.57-2.96-3.17-5.27-5.66-6.66-7.15-.67.63-1.34,1.27-2,1.89,7.26,7.89,35.69,38.79,50.56,55.48,17.14,19.24,62.09,58.24,85.18,76.78Z"/><path class="cls-55" d="M912.06,597.89c4.94-6.76,8.03-11.52,8.03-11.52,0,0-3.09,4.76-8.03,11.52,10.4-10,22.32-25.57,30.9-38.45,3.18-4.77,7.49-11.56,12.17-19.24-.67-.12-1.5-.27-2.47-.46-3.55,5.27-27.52,40.43-49.31,62.47-3.91,3.95-7.73,7.57-11.46,10.91,3.57-2.2,8.46-5.48,14.39-10.12,1.85-1.45,3.79-3.18,5.78-5.1Z"/><path class="cls-13" d="M399.94,293.94c-7.17,28.86-9.09,75.12-7.17,101.92,1.92,26.8,10.14,64.76,10.14,64.76,0,0-5.03-12.21-9.29-31.07.72,10.38,3.02,29.02,10.34,45.76,10.84,24.84,41.8,74.33,67.16,103.02,25.36,28.68,69.76,66.64,91.98,80.28,22.23,13.64,45.66,23.44,72.25,30.96,26.59,7.52,83.78,22.04,139.75,3.67,55.97-18.36,90.07-45.82,108.61-62.61,10.83-9.81,21.41-23.24,28.35-32.73-1.99,1.92-3.94,3.65-5.78,5.1-5.93,4.65-10.82,7.92-14.39,10.12-18.79,16.82-35.4,26.46-50.72,35-18.36,10.23-45.91,22.96-74.11,30.7-28.2,7.74-61.78,9.44-87.63,8-25.84-1.44-70.31-16.4-87.63-24.53-17.32-8.13-46.04-27.02-62.44-40.01-16.4-12.99-55.65-53.26-69.01-71.1-13.36-17.84-36.45-53.65-44.32-72.28-7.87-18.63-14.04-36.99-16.92-53.78-2.89-16.79-4.33-40.53-3.8-53.91.27-6.85,1.75-18.03,3.14-27.32,1.47-19.5,4.46-38.62,8.93-53.23,5.4-17.65,13.42-36.42,17.29-45.13-1.13.34-2.05.66-2.73.92.68-.27,1.6-.58,2.73-.92.5-1.13.93-2.09,1.28-2.86-2.33.74-4.57,1.53-6.73,2.36-3.36,6.02-13.38,25.14-19.28,48.9Z"/><path class="cls-59" d="M492.26,220.22c-4.4-.55-8.46-.83-11.51-.61,3.05-.21,7.12.07,11.51.61,10.16-.45,17.52-.44,17.52-.44,0,0-21.59-4.75-47.33-1.68-5.71,1.21-11.14,2.58-16,3.88,4.86-1.3,10.29-2.67,16-3.88-6.61.79-13.5,2.09-20.36,4.13-26.21,7.78-54.56,26.97-79.08,56.1,31.8-30.44,59.43-43.98,80.05-51.29,12.44-4.41,33.97-6.14,49.2-6.82Z"/><path class="cls-11" d="M957.15,536.88c-6.58-1.63-43.09-10.91-66.26-21.7-11.97-5.57-29.74-16.05-48.06-28.02-10.76-6.27-27.76-16.35-34.18-21.13-9.71-7.21-55.75-41.58-73.72-58-16-14.62-46.74-44.03-53.3-50.31-1,1.05-1.99,2.09-2.94,3.11,7,6.84,37.56,36.59,56.94,53.55,22,19.25,67.78,55.33,93.75,71.2,25.97,15.87,62.18,35.42,87.1,44.08,15.64,5.43,27.71,8.33,34.54,9.74.27-.38.52-.75.75-1.08-.23.34-.48.7-.75,1.08.59.12,1.15.23,1.66.33.3-.44.47-.7.47-.7,0,0-.17.26-.47.7.97.19,1.8.34,2.47.46.66-1.09,1.33-2.2,2.01-3.31Z"/><path class="cls-19" d="M808.64,466.04c6.43,4.78,23.42,14.86,34.18,21.13-20.77-13.57-42.25-29.05-56.75-41.46-25.07-21.45-89.98-82.42-100.37-92.19-1.4,1.42-2.75,2.82-4.08,4.21,6.56,6.28,37.3,35.69,53.3,50.31,17.97,16.42,64.01,50.79,73.72,58Z"/><path class="cls-24" d="M842.82,487.17c5.49,3.2,9.37,5.41,9.37,5.41,0,0-3.87-2.21-9.37-5.41,18.32,11.97,36.1,22.45,48.06,28.02,23.17,10.79,59.68,20.07,66.26,21.7.71-1.18,1.43-2.38,2.16-3.59-10.3-1.32-37.11-8.55-60.41-18.72-24.66-10.76-51.81-28.33-77.26-46.49-25.45-18.16-66.77-53.73-83.17-70.12-14.29-14.29-42.84-40.75-49.92-47.29-.95.95-1.9,1.9-2.83,2.85,10.39,9.77,75.31,70.74,100.37,92.19,14.5,12.41,35.97,27.89,56.75,41.46Z"/><path class="cls-10" d="M447.38,607.71c-15.22-16-29.1-34.63-35.61-46.57-6.5-11.94-16.12-28.07-19.58-37.39,0,0,35.34,49.35,47.7,62.96,3.06,3.37,6.85,7.46,10.97,11.83-22.23-28.66-49.28-66.63-55.31-80.4-8.05-18.36-23.79-66.99-28.33-90.42-4.55-23.44-7.17-56.14-5.25-91.12,1.62-29.53,13.22-59.07,16.79-67.55-8.57,6.95-15.63,14.16-19.81,20.41-7.69,11.49-21.88,38.45-27.7,49.67-2.14,15.69-3.85,34.56-3.48,53.21,3.89,28.6,11.42,74.69,22.13,99.39,16.27,37.52,38.83,71.62,54.31,93.92,15.48,22.3,55.91,55.09,78.06,72.28,10.65,8.26,23.18,16.22,34.79,23.07,6.76,3.12,11.59,5.22,11.59,5.22,0,0-4.83-2.1-11.59-5.22,12.53,7.4,23.97,13.52,30.79,17.33,0,0-31.61-23.74-52.34-41.06-10.4-8.69-24.03-23.78-35.04-36.67-4.82-4.52-9.32-8.94-13.1-12.92Z"/><path class="cls-57" d="M524.25,411.34c25.58-20.33,43.03-46.57,43.03-46.57,0,0-32.53,33.58-47.75,46.96-15.22,13.38-35.81,28.73-63.36,39.22-23.73,9.04-38.69,11.65-42.38,12.2.32.91.63,1.79.93,2.62.18.51.39,1.02.58,1.53,6.06-1.5,33.25-8.41,51.23-15.83,20.33-8.4,32.14-19.81,57.72-40.14Z"/><path class="cls-14" d="M594.3,422.1c17.71-18.36,54.83-59.95,75.16-81.46,20.33-21.51,63.1-59.55,86.45-76.61,20.55-15.01,57.24-38.33,85.59-50.16-29.98,7.73-57.18,19.88-75.76,30.74-27.81,16.27-64.8,42.5-101.79,73.72-36.99,31.22-82.12,86.05-99.96,108.61-17.84,22.56-55.79,48.54-77.31,57.63-19.14,8.09-46,19.49-51.71,21.92,1.64,2.82,3.34,5.67,5.07,8.55,6.14-1.93,31.05-10.14,60.1-25.26,33.54-17.45,76.43-49.32,94.14-67.69Z"/><path class="cls-64" d="M976.94,456.95c-12.94,3.85-40.67,3.45-52.14,1.03s-29.28-11.69-40.73-19.83c-11.46-8.13-36.03-31.22-43.9-38.22-7.87-7-32.27-31.57-43.29-42.24-11.02-10.67-31.51-28.86-37.14-34.28-3.53-3.4-10.08-8.8-14.47-12.35,14.54,15.6,44.49,47.7,55.19,58.79,14.34,14.87,68.04,61.22,88.68,74.51,20.64,13.29,52.65,19.94,73.98,17.84,16.16-1.59,29.71-8.8,35.34-12.2.41-1.28.82-2.57,1.21-3.88-4.03,2.58-13.12,7.97-22.73,10.83Z"/><path class="cls-3" d="M388.74,611.03s9.9,11.17,21.59,22.28c3.41,2.57,5.63,4.22,5.63,4.22,0,0-2.23-1.65-5.63-4.22,4.28,4.07,8.81,8.12,13.18,11.61,5.12,2.81,7.91,3.89,7.91,3.89,0,0-2.79-1.08-7.91-3.89,1.92,1.54,3.81,2.97,5.63,4.24,16.16,11.27,44.21,27.21,58.83,33.07-4.51-3.29-9.3-6.96-14.08-10.91-9.24-5.46-26.66-15.85-38.98-23.74-17.49-11.19-46.17-36.55-46.17-36.55Z"/><path class="cls-54" d="M387.87,384.54c.42,16.87,2.92,32.42,5.76,45.01-.35-5.01-.33-8.11-.33-8.11,0,0-.02,3.09.33,8.11,4.25,18.86,9.29,31.07,9.29,31.07,0,0-8.22-37.95-10.14-64.76-1.92-26.8,0-73.07,7.17-101.92,5.9-23.76,15.92-42.89,19.28-48.9-.25.09-.5.19-.74.28-1.97.78-3.95,1.63-5.94,2.54-3.01,5.99-10.97,22.6-16.27,41.01-6.65,23.09-9.44,53.52-8.4,95.67Z"/><path class="cls-62" d="M466.31,439.54c16.35-6.21,30.17-18.98,30.17-18.98,0,0-25.71,16.62-50.2,20.71-19.64,3.28-33.2,4.52-37.8,4.88.54,1.94,1.08,3.82,1.62,5.62,8.12-1.28,41.86-6.79,56.2-12.23Z"/><path class="cls-7" d="M385.25,613.57c-12.07-10.14-41.63-41.71-54.57-63.58-12.94-21.86-27.46-57.19-32.18-76.61-3.95-16.24-8.83-54.38-10.54-76.45-.62,26.18,2.46,57.67,8.76,80.89,7.67,28.23,17.52,57.13,37.98,86.86,20.46,29.73,50.55,53.87,68.39,66.99,8.67,6.38,15.59,10.59,20.43,13.25-4.37-3.5-8.89-7.55-13.18-11.61-6.46-4.88-17.19-13.1-25.09-19.74Z"/><path class="cls-28" d="M629.82,721.11c-.15-.04-.23-.07-.23-.07,0,0,.08.02.23.07Z"/><path class="cls-29" d="M1018.92,385.76c-1.57,30.26-13.12,72.06-13.12,72.06,0,0,9.62-22.91,13.29-40.93,3.67-18.01,5.95-60.87,2.37-81.91-2.78-16.35-9.11-40.53-11.8-50.49-1.07-1.24-2.08-2.38-3.02-3.42,1.13,5.96,3.51,18.5,6.16,32.1,3.67,18.89,7.7,42.33,6.12,72.58Z"/><path class="cls-6" d="M366.67,332.14c.72,16.92,2.64,40.39,5.17,62.41.13-18.26.89-58.71,4.97-82.25,4.35-25.17,17.13-48.95,21.84-57.1-3.94,2.35-7.8,4.88-11.49,7.5-4.75,7.38-12.77,22.69-17.48,47.5-1.36,7.19-2.34,14.56-3.01,21.94Z"/><path class="cls-30" d="M1005.27,423.41c-1.1,5.72-2.36,11.08-3.74,16.18.96-.91,1.51-1.49,1.51-1.49,0,0-.55.58-1.51,1.49-.6,2.22-1.22,4.4-1.86,6.52,1.4-.89,2.19-1.45,2.19-1.45,0,0-.8.56-2.19,1.45-.4,1.31-.8,2.6-1.21,3.88,1.8-1.09,2.79-1.79,2.79-1.79,0,0-.99.7-2.79,1.79-4.14,12.86-8.97,24.14-13.78,35.41,1.56-.26,2.41-.47,2.41-.47,0,0-.85.21-2.41.47-.44,1.02-.87,2.05-1.31,3.07-.38.9-.8,1.84-1.24,2.8,1.51-.32,2.33-.57,2.33-.57,0,0-.82.25-2.33.57-.79,1.75-1.67,3.59-2.62,5.53.93-.15,1.83-.31,2.68-.5-.85.19-1.75.36-2.68.5-1.04,2.12-2.17,4.35-3.37,6.64,2.33.08,3.6.02,3.6.02,0,0-1.27.06-3.6-.02-3.45,6.6-7.46,13.79-11.56,20.88,1.11.23,1.74.35,1.74.35,0,0-.63-.12-1.74-.35-.71,1.23-1.43,2.46-2.14,3.68,1.73.32,2.7.48,2.7.48,0,0-.98-.16-2.7-.48-1.05,1.78-2.09,3.55-3.13,5.29.6.08,1.15.14,1.63.17-.48-.04-1.04-.1-1.63-.17-.72,1.21-1.44,2.41-2.16,3.59.67.17,1.04.25,1.04.25,0,0-.36-.09-1.04-.25-.68,1.12-1.35,2.23-2.01,3.31,1.39.25,2.13.35,2.13.35,0,0-.73-.1-2.13-.35-4.68,7.67-8.99,14.47-12.17,19.24-8.59,12.88-20.5,28.45-30.9,38.45-6.94,9.49-17.52,22.93-28.35,32.73-18.54,16.79-52.65,44.25-108.61,62.61-55.97,18.36-113.16,3.85-139.75-3.67-26.59-7.52-50.02-17.32-72.25-30.96-22.23-13.64-66.62-51.6-91.98-80.28-25.36-28.68-56.32-78.18-67.16-103.02-7.31-16.75-9.61-35.39-10.34-45.76-2.84-12.59-5.34-28.14-5.76-45.01-1.05-42.15,1.75-72.58,8.4-95.67,5.3-18.41,13.26-35.02,16.27-41.01-4.66,2.14-9.33,4.62-13.89,7.34-4.71,8.15-17.48,31.94-21.84,57.1-4.07,23.54-4.84,63.99-4.97,82.25,1.88,16.41,4.1,32.01,6.41,43.5,3.96,19.71,10.54,37.27,19.03,53.92,14.68,21.38,42.96,61.93,62.03,85.31,26.76,32.79,70.57,72.41,109.93,93.4,30.32,16.17,66.41,31.08,104.47,38.4,26.1,2.57,63.12,1.75,98.59-8.15,45.09-12.58,51.07-21.16,80.7-39.82,29.62-18.66,46.63-43.43,67.59-64.85,20.96-21.42,46.03-63.05,58.1-84.22,12.07-21.16,27.81-67.34,32.5-96.27,4.69-28.94,2.13-67.43-4.52-99.44-5.08-24.48-10.27-40.56-12.42-46.77-4.07-3.2-7.47-5.65-7.47-5.65,0,0,16.4,51.29,20.07,84.08,3.67,32.79,3.54,48.8-1.57,75.43Z"/><path class="cls-31" d="M1011.19,415.77c-4.69,28.94-20.43,75.11-32.5,96.27-12.07,21.16-37.14,62.8-58.1,84.22-20.96,21.42-37.96,46.19-67.59,64.85-29.62,18.66-35.6,27.24-80.7,39.82-35.47,9.9-72.49,10.72-98.59,8.15,11.34,2.18,22.86,3.7,34.46,4.36,50.49,2.89,103.22-16.53,138.12-36.2,34.89-19.68,61.65-49.06,86.31-77.66s51.95-70.84,64.8-97.07c12.86-26.24,19.59-42.5,26.24-77.79,6.65-35.29,3.5-62.22,2.1-82.51-.84-12.11-5.91-30.57-9.86-43.49-.85-1.68-1.35-2.6-1.35-2.6,0,0,.5.92,1.35,2.6-1.4-4.57-2.65-8.43-3.53-11.09-.93-1.1-1.82-2.15-2.68-3.14,2.69,9.96,9.02,34.14,11.8,50.49,3.58,21.04,1.3,63.89-2.37,81.91-3.67,18.01-13.29,40.93-13.29,40.93,0,0,11.54-41.8,13.12-72.06,1.57-30.26-2.45-53.69-6.12-72.58-2.64-13.6-5.03-26.14-6.16-32.1-2.94-3.26-5.19-5.54-6.35-6.55-1.96-1.71-4.08-3.43-6.04-4.97,2.16,6.21,7.34,22.29,12.42,46.77,6.65,32.01,9.21,70.5,4.52,99.44Z"/><path class="cls-33" d="M371.84,394.55c-.04,5.86-.02,9.44-.02,9.44,0,0-.02-3.58.02-9.44-2.53-22.02-4.45-45.49-5.17-62.41-2.78,30.53-.36,61.36,1.61,81.08,2.45,24.49,13.9,57.72,23.92,79.23,10.01,21.51,27.5,47.75,40.8,65.06,13.29,17.32,46,51.6,46,51.6,0,0-37.5-48.97-57.67-77.83-9.03-12.92-17.16-25.81-24.04-39.31-5.92-8.62-9.63-14.13-9.63-14.13,0,0,3.71,5.51,9.63,14.13-8.49-16.65-15.07-34.21-19.03-53.92-2.31-11.49-4.53-27.09-6.41-43.5Z"/><path class="cls-44" d="M392.2,492.45c-10.01-21.51-21.47-54.74-23.92-79.23-1.97-19.72-4.39-50.55-1.61-81.08-.41-9.63-.44-17.15.04-21.07-.47,3.91-.45,11.43-.04,21.07.67-7.38,1.65-14.75,3.01-21.94,4.7-24.81,12.72-40.12,17.48-47.5-2.91,2.07-5.72,4.21-8.38,6.36-3.57,8.48-15.17,38.01-16.79,67.55-1.92,34.98.7,67.69,5.25,91.12,4.55,23.44,20.29,72.06,28.33,90.42,6.03,13.76,33.08,51.74,55.31,80.4,12.55,13.3,28.27,29.27,36.51,35.98,10.95,8.92,23.48,16.33,23.48,16.33,0,0-18.76-17.84-23.87-23.09-5.12-5.25-16.4-17.45-16.4-17.45,0,0,19.55,15.22,30.17,25.71,5.53,5.46,16.82,14.48,27.57,22.4-11.09-10.8-23.98-24.68-29.35-30.21-6.56-6.76-20-19.13-20-19.13,0,0-32.71-34.28-46-51.6-13.29-17.32-30.78-43.55-40.8-65.06Z"/><path class="cls-25" d="M358.97,289.48c4.18-6.25,11.24-13.46,19.81-20.41.66-1.56,1.04-2.41,1.04-2.41,0,0-.39.85-1.04,2.41,2.66-2.16,5.46-4.29,8.38-6.36,2.32-3.6,3.86-5.32,3.86-5.32,0,0-1.55,1.72-3.86,5.32,3.69-2.62,7.55-5.15,11.49-7.5,1.11-1.92,1.77-2.98,1.77-2.98,0,0-.66,1.06-1.77,2.98,4.56-2.72,9.23-5.2,13.89-7.34.77-1.52,1.22-2.37,1.22-2.37,0,0-.45.85-1.22,2.37,1.99-.91,3.97-1.77,5.94-2.54.24-.1.49-.19.74-.28.72-1.29,1.14-1.99,1.14-1.99,0,0-.42.7-1.14,1.99,2.16-.83,4.4-1.62,6.73-2.36.62-1.36.97-2.12.97-2.12,0,0-.36.76-.97,2.12,23.52-7.5,54.82-10.41,75.61-8.2,15.24,1.62,39.31,8.56,58.89,15.87-6.08-3.87-16.98-10.11-30.56-14.82-21.16-7.35-50.9-8.57-50.9-8.57,0,0,22.21-3.67,43.38-.87,0,0-16.62-4.18-30.11-5.86-15.24.68-36.77,2.41-49.2,6.82-20.62,7.31-48.25,20.85-80.05,51.29-6.89,8.19-13.49,17.16-19.65,26.89,6.16-9.73,12.75-18.7,19.65-26.89-.17.16-.33.31-.5.47-9.99,9.61-18.96,20.83-26.63,32.81-1.34,6.72-3.09,16.32-4.61,27.53,5.82-11.22,20.01-38.18,27.7-49.67Z"/><path class="cls-45" d="M810.43,73.91c-37.6-12.42-84.3-18.89-131-16.97-46.7,1.92-105.82,20.46-147.62,47.57-41.53,26.94-69.93,61.97-70.29,62.42,3.43-.19,6.88-.32,10.36-.36,12.54-11.79,40.99-40.47,69.03-58.12,28.33-17.84,75.82-38.57,137.21-43.29,61.39-4.72,119.9,9.71,171.58,34.37,43.23,20.63,75.06,49,84.32,57.75,10.63,2.91,22,6.49,32.54,10.73-9.67-9.24-30.6-27.39-50.67-42.15-21.86-16.09-67.86-39.53-105.47-51.95Z"/><path class="cls-46" d="M924.64,118.34c-38.01-29.23-85.7-52.47-135.02-64.01-49.32-11.54-108.26-14.17-152.34-2.97-44.08,11.19-103.72,38.83-126.63,57.02-22.76,18.07-48.45,47.18-57.71,59.22,2.84-.27,5.7-.49,8.57-.65.36-.45,28.76-35.48,70.29-62.42,41.8-27.11,100.92-45.65,147.62-47.57,46.7-1.92,93.4,4.55,131,16.97,37.6,12.42,83.6,35.85,105.47,51.95,20.06,14.77,41,32.91,50.67,42.15,3.68,1.48,7.26,3.04,10.66,4.69,5.03,2.42,9.74,4.77,14.2,7.06-5.63-6.15-32.96-35.42-66.78-61.42Z"/><path class="cls-47" d="M432.82,170.54c4.76-.96,9.61-1.73,14.54-2.34,3.77-5.82,35.86-53.39,99.32-87.82,67.69-36.73,128.82-49.58,215.65-35.94,86.84,13.64,149.28,58.52,176.56,80.55,25.7,20.75,48.91,44.84,60.07,58.75,13.2,7.13,23.94,13.9,33.4,21.16-6.63-10.95-20.68-33-36.54-50.88-22.04-24.84-72.06-79.76-175.6-116.13C716.68,1.51,618.39,2.9,526.39,53.11c-48.95,26.72-82.65,61.19-103.47,87.61,1.43-.91,2.89-1.8,4.39-2.62-1.5.83-2.95,1.71-4.39,2.62-14.44,18.32-22.68,32.75-25.52,38.04,8.71-2.45,20.01-5.11,35.41-8.22Z"/><path class="cls-66" d="M938.9,124.99c-27.28-22.03-89.72-66.91-176.56-80.55-86.84-13.64-147.97-.79-215.65,35.94-63.45,34.43-95.55,82.01-99.32,87.82,1.85-.23,3.71-.43,5.58-.61,9.25-12.04,34.94-41.15,57.71-59.22,22.91-18.19,82.55-45.82,126.63-57.02,44.08-11.19,103.02-8.57,152.34,2.97,49.32,11.54,97.01,34.78,135.02,64.01,33.82,26.01,61.16,55.28,66.78,61.42,2.6,1.34,5.12,2.66,7.54,3.98-11.16-13.91-34.37-38-60.07-58.75Z"/><path class="cls-32" d="M512.92,194.59c-39.88-2.97-66.46.35-93.57,9.44-27.11,9.09-47.4,21.16-64.89,33.76-17.49,12.59-35.16,34.11-43.03,47.05-7.87,12.94-14.52,21.69-25.19,52.47-10.67,30.78-11.19,61.92-10.49,79.23.7,17.32,6.82,48.1,11.02,63.66,4.2,15.57,19.06,53.52,34.81,78.53,15.74,25.01,56.14,65.5,81.59,84.65,25.45,19.15,88.15,49.32,109.66,55.36,0,0-11.1-6.47-24.87-16.51-14.62-5.86-42.66-21.81-58.83-33.07-1.82-1.27-3.71-2.7-5.63-4.24-4.84-2.66-11.76-6.87-20.43-13.25-17.84-13.12-47.92-37.25-68.39-66.99-20.46-29.73-30.32-58.63-37.98-86.86-6.3-23.22-9.39-54.71-8.76-80.89-.34-4.31-.55-8.02-.61-10.83.06,2.8.28,6.51.61,10.83.13-5.65.44-11.06.92-16.07,2.31-23.84,17.65-65.33,28.06-86.23-8.97,12.79-15.74,24.83-18.44,33.41-7.87,25.01-14.87,55.79-15.04,80.8-.17,25.01,14.25,93.66,14.25,93.66-9.44-22.3-16.79-61.39-17.58-92.61-.79-31.22,7.77-77.24,21.15-102.95,13.38-25.71,49.43-74.4,102.19-89.83,52.76-15.43,93.11-16.84,146.1-.58,46.39,14.23,79.72,40.53,87.3,46.86,2.47-2.78,4.96-5.6,7.49-8.45-4.91-3.62-25.99-19.05-41.27-28.34-17.4-10.58-50.28-29.03-90.16-32.01Z"/><path class="cls-35" d="M678.12,65.17c-61.39,4.72-108.88,25.45-137.21,43.29-28.03,17.65-56.49,46.33-69.03,58.12,3.1-.04,6.22-.02,9.34.06,52.4-55.22,112.68-79.61,112.68-79.61-20.29,6.82-43.73,18.71-68.74,37.08-22.88,16.8-46.87,42.15-46.87,42.15,0,0,24-25.35,46.87-42.15,25.01-18.36,48.45-30.26,68.74-37.08,0,0-60.28,24.39-112.68,79.61,1.16.03,2.32.07,3.48.12,58.17-57.07,116.64-92.15,207.84-92.15,65.73,0,164.87,28.9,216.54,76.61,7.07,1.52,15.72,3.53,24.94,6.06-9.27-8.74-41.1-37.12-84.32-57.75-51.68-24.66-110.19-39.09-171.58-34.37Z"/><path class="cls-63" d="M422.92,140.72c-21.3,13.61-35.35,36.11-39,42.39,3.74-1.41,8.12-2.84,13.48-4.35,2.84-5.29,11.08-19.72,25.52-38.04Z"/><path class="cls-34" d="M1094.3,283.79c-10.84-23.61-33.93-53.17-44.69-63.84-5.43-5.39-11.07-10.33-17.24-15.06,2.58,4.26,4.03,6.84,4.03,6.84,0,0-1.46-2.58-4.03-6.84-9.47-7.26-20.2-14.03-33.4-21.16.69.86,1.34,1.68,1.93,2.46-.6-.78-1.24-1.6-1.93-2.46-2.43-1.31-4.94-2.63-7.54-3.98.7.76,1.08,1.19,1.08,1.19,0,0-.38-.43-1.08-1.19-4.46-2.29-9.17-4.64-14.2-7.06-3.41-1.64-6.99-3.2-10.66-4.69.87.83,1.65,1.59,2.33,2.27-.68-.68-1.46-1.44-2.33-2.27-10.54-4.24-21.91-7.82-32.54-10.73,1.81,1.71,2.78,2.68,2.78,2.68,0,0-.97-.97-2.78-2.68-9.21-2.52-17.86-4.54-24.94-6.06,1.13,1.04,2.24,2.08,3.32,3.14-1.08-1.06-2.19-2.1-3.32-3.14-10.62-2.28-17.67-3.42-17.67-3.42-33.32-6.3-89.2.13-122.65,12.59-33.45,12.46-61.35,33.49-82.68,52.03-8.86,7.7-16.71,15.42-23.96,23.04.69.49,1.05.75,1.05.75,0,0-.37-.26-1.05-.75-.91.95-1.81,1.91-2.7,2.86.81.58,1.26.91,1.26.91,0,0-.45-.33-1.26-.91-2.2,2.35-4.35,4.69-6.46,7.01,1.17.71,1.82,1.11,1.82,1.11,0,0-.65-.4-1.82-1.11-2.93,3.24-5.79,6.44-8.59,9.6.68.5,1.05.78,1.05.78,0,0-.38-.28-1.05-.78-2.53,2.85-5.02,5.68-7.49,8.45,1.08.9,1.64,1.4,1.64,1.4,0,0-.56-.5-1.64-1.4-.78.88-1.57,1.76-2.35,2.63.65.4,1.01.63,1.01.63,0,0-.36-.23-1.01-.63-.19.21-.37.42-.56.63-1.13,1.26-2.39,2.69-3.74,4.22.61.43.95.67.95.67,0,0-.33-.24-.95-.67-3.2,3.64-6.96,7.99-11.13,12.83.8.65,1.23,1.05,1.23,1.13,0-.08-.43-.48-1.23-1.13-1.79,2.08-3.65,4.26-5.57,6.51.77.58,1.2.92,1.2.92,0,0-.43-.34-1.2-.92-16.99,19.9-38.53,45.52-54.77,64.59-24.14,28.33-47.4,50.72-71.19,64.36-23.21,13.31-55.58,24.46-79.89,24.01.27,1.01.54,2,.82,2.97,4.6-.36,18.15-1.6,37.8-4.88,24.49-4.09,50.2-20.71,50.2-20.71,0,0-13.82,12.77-30.17,18.98-14.33,5.44-48.08,10.95-56.2,12.23.43,1.43.85,2.81,1.27,4.15,6.26-.92,28.97-4.41,42.07-8.68,15.3-4.98,27.02-10.49,41.98-20.64,14.95-10.14,32.36-27.63,42.59-38.39,10.23-10.76,20.33-22.26,30.17-34.19,9.84-11.94,37.78-42.24,37.78-42.24,0,0-10.63,16.13-17.45,23.74-6.82,7.61-20.59,23.61-20.59,23.61,0,0,19.15-19.02,25.97-25.71,6.82-6.69,20.07-23.22,20.07-23.22,0,0-2.84,4.33-6.87,10.29,8.18-9.94,20.2-24.55,26.42-32.07,4.8-5.81,13.64-14.02,21.52-20.97,4.11-4.72,7.92-8.92,11.27-12.35,22.56-23.09,64.71-59.47,100.57-75.56,35.85-16.09,77.66-24.66,112.81-23.79,35.16.87,78.52,12.24,97.2,19.25,18.68,7.01,43.68,24.83,51.29,31.91,7.61,7.08,18.36,15.57,31.13,33.32,7.67,10.67,20.52,32.54,31.6,58.15,3.4,5.58,6.54,11.28,9.33,17.06-2.79-5.78-5.93-11.48-9.33-17.06,7.36,17.01,13.95,35.67,17.72,53.79,9.44,45.39,6.3,66.07,2.36,91.02-3.94,24.94-11.54,49.6-21.12,70.33-9.58,20.73-25.84,40.8-34.89,52.08-4.48,5.58-10.37,12.16-15.18,17.38,13.56-12.02,27.69-26.97,40.86-48.73,17.15-28.33,29.72-64.02,34-87.46,4.28-23.44,4.99-58.59,1.92-85.18-3.07-26.59-11.45-54.22-22.29-77.83ZM733.77,184.9c-25.13,16.69-49.27,39.78-59.76,49.31s-32.04,34.82-43.44,47.32c-11.39,12.5-31.94,31.82-31.94,31.82,0,0,37.58-46.38,66.8-75.4,29.22-29.02,56.58-50.14,82.18-64.64,25.6-14.49,53.82-18.78,53.82-18.78,0,0-42.53,13.66-67.66,30.35Z"/><path class="cls-20" d="M403.46,217.12c-52.76,15.43-88.81,64.12-102.19,89.83-13.38,25.71-21.93,71.73-21.15,102.95.79,31.22,8.13,70.31,17.58,92.61,0,0-14.43-68.65-14.25-93.66.17-25.01,7.17-55.79,15.04-80.8,2.7-8.58,9.48-20.62,18.44-33.41,1.93-3.88,3.69-7.05,5.17-9.26-1.48,2.22-3.24,5.39-5.17,9.26,17.17-24.5,42.38-51.75,62.39-62.68,30.46-16.64,62.43-22.47,94.77-23.81,32.34-1.34,91.3,18.98,112.64,30.17,18.94,9.93,42.68,24.54,47.79,27.71.78-.87,1.56-1.75,2.35-2.63-7.58-6.33-40.91-32.63-87.3-46.86-53-16.26-93.34-14.85-146.1.58Z"/><path class="cls-36" d="M1089.88,513.53c9.58-20.73,17.18-45.39,21.12-70.33,3.94-24.94,7.08-45.63-2.36-91.02-3.77-18.12-10.36-36.78-17.72-53.79-16.65-27.36-39.38-51.63-56.08-66.02-19.21-16.54-52.79-35.62-93.71-41.72,10.14,3.07,18.68,6.04,18.68,6.04,0,0-8.55-2.97-18.68-6.04-1.92-.29-3.85-.55-5.8-.78-43.55-5.07-89.55.52-140.27,24.14-50.72,23.61-109.84,78.36-109.84,78.36,0,0,33.58-25.19,48.1-34.81,14.52-9.62,57.02-36.2,83.6-45.12,26.59-8.92,57.72-19.24,102.14-16.79,44.43,2.45,77.31,16.79,98.47,31.13,21.16,14.34,46.35,41.1,62.44,67.51,16.09,26.41,24.75,63.14,28.16,88.17,3.41,25.03-2.89,62.99-2.89,62.99,0,0,1.71-20.86,1.18-35.81-.52-14.95.39-24.92-11.94-70.05-12.33-45.12-41.98-81.07-77.92-105.73-35.94-24.66-82.12-30.43-128.99-27.55-7.27.45-14.54,1.29-21.75,2.45,20.25,1.09,45.6,4.95,64.6,8.75,21.86,4.37,51.6,13.12,81.68,39,30.08,25.89,50.2,62.79,56.32,82.99,6.12,20.2,16.27,71.1,10.32,110.8-1.81,12.1-5.23,23.9-9.1,34.48,11.9-22.82,17.84-61.41,17.84-61.41,0,0,.87,21.69-2.1,37.78-1.1,5.98-2.33,12.2-4.2,19.23,11.36-20.6,16.44-38.12,16.44-38.12-2.1,33.58-16.09,80.63-39.17,107.04-17.17,19.65-38.8,38.61-48.75,47.04-3.04,5.16-6.48,10.59-10.33,16.24,5.77-3.27,16.72-9.94,28.35-19.38,3.95-3.21,8-6.58,12.09-10.21,4.81-5.22,10.7-11.8,15.18-17.38,9.05-11.28,25.32-31.35,34.89-52.08Z"/><path class="cls-37" d="M505.46,170.48c33.55,5.22,63.66,16.16,93.17,30.59,26.11,12.77,54.57,32.81,60.79,37.26.89-.95,1.79-1.9,2.7-2.86-7.02-4.97-48.21-33.61-87.89-49.62-27.51-11.1-58.89-17.87-89.52-19.09-.07.07-.14.13-.21.2.07-.07.14-.13.21-.2-1.16-.05-2.32-.09-3.48-.12-.1.11-.2.21-.31.32.1-.11.2-.21.31-.32-3.13-.08-6.24-.1-9.34-.06-.13.13-.28.26-.41.38.13-.12.27-.26.41-.38-3.48.04-6.93.17-10.36.36,0,0-.02.02-.02.02,0,0,.01-.02.02-.02-2.88.16-5.74.38-8.57.65-.06.08-.13.17-.19.24.06-.08.13-.16.19-.24-1.87.18-3.73.39-5.58.61-.25.39-.38.59-.38.59,0,0,.13-.2.38-.59-4.93.61-9.79,1.38-14.54,2.34-15.4,3.11-26.7,5.77-35.41,8.22-.76,1.42-1.14,2.19-1.14,2.19,0,0,.38-.77,1.14-2.19-5.36,1.51-9.74,2.94-13.48,4.35-.62,1.07-.95,1.69-.95,1.69,0,0,.33-.62.95-1.69-7.79,2.93-12.83,5.77-18.27,9.03-6.19,3.71-12.66,7.96-19.24,12.74,13.43-6.34,43.21-20.16,58.46-25.38,20.07-6.86,67.03-14.25,100.58-9.03Z"/><path class="cls-8" d="M331.38,604.39c-13.64-15.74-40.58-52.3-53.87-81.15-13.29-28.86-14.34-53.26-14.34-53.26,0,0,2.97,18.1,14.69,45.04,11.72,26.93,36.77,64.1,55.01,85.09,18.23,20.99,67.29,59.07,80.89,67.07,13.6,8,32.53,14.87,32.53,14.87,0,0-15.92-8.75-26.59-16.09-10.67-7.35-40.4-31.13-59.29-51.42-18.89-20.29-44.34-54.57-52.86-72.54-8.53-17.97-22.17-52.6-25.97-69.65-3.8-17.05-10.1-53.26-8.13-78.97,1.97-25.71,5.64-40.8,14.04-65.72,8.4-24.92,14.69-36.2,30.7-58.11,16-21.91,42.5-43.81,62.7-53.26,20.2-9.44,56.14-22.96,79.36-25.45,23.22-2.49,52.47-1.18,52.47-1.18,0,0-20.07-4.2-33.71-3.94-13.64.26-28.73,1.84-47.62,7.35-18.89,5.51-47.62,18.36-47.62,18.36,26.89-16.66,58.64-24.66,80.67-27.28,22.04-2.62,56.8-4.72,56.8-4.72,0,0-35.02-8.92-62.05-6.17-27.02,2.75-69.65,17.58-103.89,36.25-22.05,12.02-40.49,25.5-50.84,33.59-16.02,18.41-30.17,40.54-39.28,66.59-20.2,57.72-17.32,119.37-7.35,167.91,9.97,48.54,39.09,94.97,67.95,125.67,15.99,17.01,35.77,34.42,58.04,50.04-17.41-14.89-42.7-37.66-52.45-48.91Z"/><path class="cls-27" d="M500.51,214.74c-12.18-1.1-25.78.76-38.06,3.36,25.74-3.07,47.33,1.68,47.33,1.68,0,0-7.36-.01-17.52.44,13.5,1.68,30.11,5.86,30.11,5.86-21.16-2.8-43.38.87-43.38.87,0,0,29.73,1.22,50.9,8.57,13.57,4.71,24.48,10.95,30.56,14.82,10.09,3.76,19,7.62,24.89,10.89,14.61,8.11,29.46,18.97,33.75,22.48,4.16-4.85,7.92-9.19,11.13-12.83-4.67-3.31-26.28-18.34-51.17-31.33-28.16-14.69-60.69-23.19-78.53-24.8Z"/><path class="cls-49" d="M1017.17,582.71c-1.19,2.33-2.36,4.55-3.5,6.63-1.24,2.26-2.57,4.6-3.97,6.99,9.95-8.42,31.58-27.39,48.75-47.04,23.08-26.41,37.07-73.46,39.17-107.04,0,0-5.08,17.51-16.44,38.12-3.16,11.88-8.15,26.07-17.48,45.31-11.63,23.95-36.33,47.79-46.53,57.03Z"/><path class="cls-52" d="M755.91,264.03c-23.35,17.05-66.11,55.09-86.45,76.61-20.33,21.51-57.46,63.1-75.16,81.46-17.71,18.36-60.6,50.24-94.14,67.69-29.06,15.12-53.97,23.33-60.1,25.26.68,1.14,1.37,2.28,2.07,3.42,7.21-2.55,44.37-16.02,70.81-31.44,29.38-17.14,65.76-44.95,83.78-63.49,18.01-18.54,62.61-68.91,81.85-87.97,19.24-19.06,59.12-52.3,87.63-72.41,28.51-20.11,79.41-42.85,122.96-43.73,43.55-.87,92.52,17.49,112.99,34.46,20.46,16.97,47.75,48.97,59.99,83.43,12.24,34.46,17.67,84.65,11.37,117.71-6.3,33.06-23.87,71.53-23.87,71.53,0,0,11.2-17.67,20.02-41.78-1.08,2.08-2.22,4.03-3.4,5.81,1.18-1.78,2.32-3.73,3.4-5.81,3.87-10.57,7.29-22.37,9.1-34.48,5.95-39.7-4.2-90.6-10.32-110.8-6.12-20.2-26.24-57.11-56.32-82.99-30.08-25.89-59.82-34.63-81.68-39-19-3.8-44.35-7.66-64.6-8.75-8.23,1.32-16.37,3.07-24.31,5.12-28.36,11.82-65.05,35.15-85.59,50.16Z"/><path class="cls-39" d="M474.1,208.15c-32.34,1.34-64.31,7.17-94.77,23.81-20.01,10.93-45.22,38.18-62.39,62.68-10.41,20.9-25.75,62.39-28.06,86.23-.49,5.02-.79,10.42-.92,16.07,1.72,22.07,6.59,60.21,10.54,76.45,4.72,19.41,19.24,54.74,32.18,76.61,12.94,21.86,42.5,53.43,54.57,63.58,7.9,6.64,18.63,14.86,25.09,19.74-11.7-11.1-21.59-22.28-21.59-22.28,0,0,28.68,25.36,46.17,36.55,12.32,7.88,29.74,18.27,38.98,23.74-.57-.47-1.15-.95-1.72-1.44-7.21-6.07-13.64-12.79-18.93-18.9-7.52-5.21-24.56-17.22-37.09-27.66-16.53-13.77-69.39-68.34-88.54-111.37-19.15-43.03-22.3-83.17-20.46-119.11,1.26-24.72,11.83-54.83,28.73-81.23,1.3-6.51,2.23-10.33,2.23-10.33,0,0-.93,3.82-2.23,10.33,7.67-11.98,16.64-23.21,26.63-32.81.17-.16.33-.31.5-.47,24.53-29.13,52.87-48.32,79.08-56.1,6.86-2.04,13.75-3.34,20.36-4.13,12.28-2.6,25.88-4.46,38.06-3.36,17.84,1.61,50.37,10.11,78.53,24.8,24.9,12.99,46.5,28.02,51.17,31.33,1.35-1.53,2.61-2.96,3.74-4.22.19-.21.37-.42.56-.63-5.11-3.16-28.85-17.77-47.79-27.71-21.34-11.19-80.3-31.51-112.64-30.17Z"/><path class="cls-50" d="M481.09,454.15c-32.43,18.49-55.91,22.4-61.61,23.11,1.8,3.95,3.81,8,5.99,12.15,6.37-2.55,27.09-11.02,38.83-17.78,13.99-8.05,53.52-32.71,72.06-50.9,18.54-18.19,44.25-44.6,63.66-71.43,19.41-26.83,40.58-55.2,57.37-72.51,16.79-17.32,58.59-56.84,90.95-75.91,32.36-19.06,67.69-34.11,101.97-35.16,34.28-1.05,74.16,11.72,74.16,11.72-27.46-2.97-49.32,3.5-49.32,3.5,0,0,26.24,1.22,40.58,3.32,6.65.97,16.62,3.72,25.39,6.38,40.92,6.1,74.5,25.18,93.71,41.72,16.71,14.38,39.44,38.66,56.08,66.02-11.08-25.6-23.93-47.48-31.6-58.15-12.77-17.75-23.52-26.24-31.13-33.32-7.61-7.08-32.61-24.9-51.29-31.91-18.68-7.01-62.05-18.37-97.2-19.25-35.16-.87-76.96,7.7-112.81,23.79-35.85,16.09-78.01,52.47-100.57,75.56-3.35,3.43-7.17,7.63-11.27,12.35,8.49-7.49,15.86-13.53,15.86-13.53,0,0-7.37,6.04-15.86,13.53-23.55,27.05-56.85,71.48-69.36,89.8-14.69,21.51-67.16,75.56-104.59,96.9Z"/><path class="cls-48" d="M875.15,180.95s21.86-6.47,49.32-3.5c0,0-39.88-12.77-74.16-11.72-34.28,1.05-69.61,16.09-101.97,35.16-32.36,19.06-74.16,58.59-90.95,75.91-16.79,17.32-37.95,45.68-57.37,72.51-19.41,26.83-45.12,53.24-63.66,71.43-18.54,18.19-58.07,42.85-72.06,50.9-11.74,6.75-32.47,15.22-38.83,17.78,2.9,5.54,6.1,11.24,9.51,17.08,5.71-2.42,32.57-13.83,51.71-21.92,21.51-9.09,59.47-35.07,77.31-57.63,17.84-22.56,62.96-77.39,99.96-108.61,36.99-31.22,73.98-57.46,101.79-73.72,18.57-10.86,45.77-23.01,75.76-30.74,3.87-1.61,7.59-3.02,11.08-4.15-3.5,1.13-7.21,2.54-11.08,4.15,7.95-2.05,16.08-3.79,24.31-5.12-3.06-.16-6-.27-8.79-.3,2.78.03,5.73.13,8.79.3,7.21-1.16,14.48-2,21.75-2.45,46.87-2.89,93.05,2.89,128.99,27.55,35.94,24.66,65.59,60.6,77.92,105.73,12.33,45.12,11.41,55.09,11.94,70.05.52,14.95-1.18,35.81-1.18,35.81,0,0,6.3-37.97,2.89-62.99-3.41-25.03-12.07-61.76-28.16-88.17-16.09-26.41-41.28-53.17-62.44-67.51-21.16-14.34-54.04-28.68-98.47-31.13-44.43-2.45-75.56,7.87-102.14,16.79-26.59,8.92-69.09,35.51-83.6,45.12-14.52,9.62-48.1,34.81-48.1,34.81,0,0,59.12-54.74,109.84-78.36,50.72-23.61,96.72-29.21,140.27-24.14,1.95.23,3.88.5,5.8.78-8.77-2.66-18.74-5.4-25.39-6.38-14.34-2.1-40.58-3.32-40.58-3.32Z"/><path class="cls-65" d="M1065.35,455.15c2.36-28.33,2.1-56.14-3.41-78.71-5.51-22.56-11.02-35.16-23.74-56.93-12.72-21.78-27.46-37.91-36.95-47.22-3.51-3.44-9.13-7.55-15.66-11.76l1.19,3.36s3.41,2.45,7.47,5.65c-.66-1.91-1.04-2.9-1.04-2.9,0,0,.38.99,1.04,2.9,1.96,1.55,4.08,3.26,6.04,4.97,1.16,1.01,3.41,3.3,6.35,6.55-.44-2.32-.69-3.64-.69-3.64,0,0,.25,1.32.69,3.64.94,1.04,1.95,2.18,3.02,3.42-.77-2.85-1.24-4.55-1.24-4.55,0,0,.47,1.69,1.24,4.55.86.99,1.75,2.04,2.68,3.14-.8-2.42-1.3-3.84-1.3-3.84,0,0,.49,1.42,1.3,3.84,13.08,15.53,32.4,41.76,39.89,65.33,1.3,4.08,2.44,8.25,3.45,12.5-.44-4-.87-7.4-1.27-9.96.39,2.57.83,5.96,1.27,9.96,7.41,31,7.58,65.92,3.89,96.38-3.11,25.63-17.28,65.77-31.46,97.77,3.75-5.47,10.72-16.21,15.85-27.46,7.35-16.13,19.02-48.67,21.38-77Z"/><path class="cls-38" d="M1050.4,366.17l-2.8,26.41c-2.8,26.41-9.09,67.16-23.44,108.44-14.34,41.28-50.02,112.99-78.36,149.02-28.33,36.03-125.18,91.13-184,91.65-56.91.5-127.46-19.28-131.99-20.57-.15-.04-.23-.07-.23-.07,0,0,.08.02.23.07,2.11.59,19.27,5,66.23,7.28,50.37,2.45,130.83-18.89,167.91-41.12,37.08-22.23,68.21-51.58,83.25-71.52,15.04-19.94,55.97-87.1,68.39-115.83,12.42-28.73,19.94-67.99,23.79-109.44,3.34-36.01-17.87-80.65-23.5-91.76,3.95,12.92,9.02,31.38,9.86,43.49,1.4,20.29,4.55,47.22-2.1,82.51-6.65,35.29-13.38,51.55-26.24,77.79-12.86,26.24-40.14,68.47-64.8,97.07s-51.42,57.98-86.31,77.66c-34.89,19.68-87.63,39.09-138.12,36.2-11.59-.66-23.11-2.18-34.46-4.36-7.08-.7-13.37-1.64-18.59-2.72,5.23,1.08,11.51,2.03,18.59,2.72-38.06-7.32-74.15-22.24-104.47-38.4-39.35-20.99-83.17-60.6-109.93-93.4-19.07-23.37-47.35-63.93-62.03-85.31,6.88,13.49,15.01,26.39,24.04,39.31,20.16,28.86,57.67,77.83,57.67,77.83,0,0,13.45,12.37,20,19.13,5.37,5.53,18.26,19.4,29.35,30.21,9.91,7.3,19.36,13.68,23.45,15.51,8.53,3.8,0,.66,0,.66,0,0-36.2-12.99-49.32-20.33-9.86-5.52-27.41-20-41.99-33.65,11.01,12.88,24.64,27.98,35.04,36.67,20.73,17.32,52.34,41.06,52.34,41.06-6.81-3.81-18.26-9.93-30.79-17.33-10.02-4.62-24.27-11.46-33.36-16.99-15.22-9.27-39.35-30.08-39.35-30.08,0,0,10.97,13.77,18.86,22.81,17.67,13.44,35.65,25.94,43.85,31.5,15.48,10.49,61.65,35.16,105.2,46.96,43.55,11.81,87.89,20.46,141.15,17.58,53.26-2.89,115.96-22.56,158.99-57.72,43.03-35.16,75.03-73.46,102.58-122.26,21.24-37.64,32.65-70.92,38.45-98.79.48-11.28,1.56-37.97,1.69-54.34.17-21.16-4.72-53.52-4.72-53.52Z"/><path class="cls-51" d="M1012.34,287.63c.88,2.66,2.14,6.52,3.53,11.09,5.63,11.11,26.84,55.75,23.5,91.76-3.85,41.45-11.37,80.71-23.79,109.44-12.42,28.73-53.35,95.89-68.39,115.83-15.04,19.94-46.17,49.29-83.25,71.52-37.08,22.23-117.53,43.57-167.91,41.12-46.96-2.28-64.12-6.69-66.23-7.28,4.53,1.29,75.09,21.07,131.99,20.57,58.82-.52,155.66-55.62,184-91.65,28.33-36.03,64.01-107.74,78.36-149.02,14.34-41.28,20.64-82.03,23.44-108.44l2.8-26.41s4.9,32.36,4.72,53.52c-.14,16.36-1.21,43.06-1.69,54.34,1.72-8.27,2.95-16.07,3.79-23.36,3.08-26.72.75-64.37-1.53-85.21-1.02-4.25-2.16-8.42-3.45-12.5-7.49-23.57-26.81-49.8-39.89-65.33Z"/><path class="cls-43" d="M1073.48,455.02c6.3-33.06.87-83.25-11.37-117.71-12.24-34.46-39.53-66.46-59.99-83.43-20.46-16.97-69.44-35.33-112.99-34.46-43.55.87-94.45,23.61-122.96,43.73-28.51,20.11-68.39,53.35-87.63,72.41-19.24,19.06-63.84,69.44-81.85,87.97-18.01,18.54-54.39,46.35-83.78,63.49-26.43,15.42-63.6,28.89-70.81,31.44,1.64,2.7,3.31,5.43,5,8.18.87,1.42,1.82,2.89,2.84,4.41,18.77-3.74,46.71-15.19,74.69-30.46,28.73-15.69,70.31-53.84,88.02-70.89,17.71-17.05,45.39-45.39,60.21-62.44,1.8-2.07,3.75-4.22,5.81-6.43-.95-.92-1.48-1.44-1.48-1.44,0,0,.53.52,1.48,1.44.96-1.03,1.94-2.06,2.94-3.11-.81-.77-1.27-1.22-1.27-1.22,0,0,.46.44,1.27,1.22,1.33-1.39,2.69-2.79,4.08-4.21-.92-.86-1.42-1.34-1.42-1.34,0,0,.5.47,1.42,1.34.93-.95,1.88-1.9,2.83-2.85-1.04-.96-1.63-1.5-1.63-1.5,0,0,.59.54,1.63,1.5,2.78-2.78,5.64-5.58,8.53-8.37-.54-.56-.85-.88-.85-.88,0,0,.31.32.85.88.9-.87,1.8-1.73,2.7-2.59-.5-.49-.8-.78-.8-.78,0,0,.29.29.8.78,5.43-5.18,10.86-10.22,15.92-14.83-.83-.78-1.28-1.21-1.28-1.21,0,0,.45.43,1.28,1.21,1.73-1.58,3.4-3.1,5.02-4.56-1.23-1.32-1.92-2.07-1.92-2.07,0,0,.69.75,1.92,2.07,1.82-1.64,3.55-3.2,5.18-4.67-.86-1.03-1.34-1.59-1.34-1.59,0,0,.47.57,1.34,1.59.56-.51,1.14-1.03,1.68-1.51,2.88-2.58,5.89-5.38,9.04-8.35-1.11-1.2-1.74-1.88-1.74-1.88,0,0,.63.68,1.74,1.88.66-.62,1.33-1.25,2-1.89-.94-1.01-1.46-1.57-1.46-1.57,0,0,.52.56,1.46,1.57.53-.51,1.07-1.01,1.62-1.53-.88-.7-1.37-1.09-1.37-1.09,0,0,.49.39,1.37,1.09,12.47-11.8,27.19-25.76,45.32-38.87,24.66-17.84,44.47-27.42,79.76-32.27,35.29-4.85,68.47,2.1,85,9.84,10.42,4.88,24.16,12.31,35.28,19.46l-.39-1.1.39,1.1c6.53,4.2,12.15,8.31,15.66,11.76,9.49,9.31,24.22,25.45,36.95,47.22,12.72,21.78,18.23,34.37,23.74,56.93,5.51,22.56,5.77,50.37,3.41,78.71-2.36,28.33-14.04,60.87-21.38,77-5.12,11.26-12.1,21.99-15.85,27.46-3.72,8.39-7.43,16.23-10.95,23.1,10.2-9.24,34.9-33.08,46.53-57.03,9.34-19.23,14.33-33.42,17.48-45.31-1.47,2.66-3.04,5.38-4.72,8.12,1.68-2.74,3.25-5.45,4.72-8.12,1.87-7.03,3.09-13.25,4.2-19.23,2.97-16.09,2.1-37.78,2.1-37.78,0,0-5.95,38.59-17.84,61.41-8.83,24.11-20.02,41.78-20.02,41.78,0,0,17.58-38.48,23.87-71.53Z"/><path class="cls-41" d="M535.27,404.78c-14.3,12.07-32.4,29.91-53.65,42.24-18.35,10.65-55.66,20.02-65.51,22.38,1.02,2.57,2.16,5.19,3.37,7.86,5.7-.72,29.19-4.63,61.61-23.11,37.43-21.34,89.9-75.38,104.59-96.9,12.51-18.32,45.81-62.75,69.36-89.8-7.88,6.95-16.72,15.16-21.52,20.97-6.22,7.52-18.24,22.13-26.42,32.07-6.67,9.86-16.63,24.19-22.51,30.9-9.44,10.76-35.02,41.32-49.32,53.39Z"/><path class="cls-5" d="M483.72,664.03c9.09,5.53,23.34,12.38,33.36,16.99-11.6-6.85-24.14-14.81-34.79-23.07-22.15-17.18-62.59-49.98-78.06-72.28-15.48-22.3-38.04-56.41-54.31-93.92-10.71-24.7-18.24-70.79-22.13-99.39.02,1.13.05,2.25.09,3.37,1.57,45.91,14.48,99.6,38.48,141.19,20.08,34.81,40.25,66.47,57.54,86.01,5.52,6.24,14.42,14.08,24.47,22.21-6.4-7.97-10.17-13.81-10.17-13.81,0,0,3.77,5.85,10.17,13.81,4.77,3.86,9.79,7.77,14.85,11.62-7.89-9.03-18.86-22.81-18.86-22.81,0,0,24.14,20.81,39.35,30.08Z"/><path class="cls-9" d="M560.45,250.34c3.4,2.16,5.3,3.59,5.3,3.59,0,0-1.9-1.43-5.3-3.59-19.59-7.3-43.66-14.25-58.89-15.87-20.8-2.21-52.09.7-75.61,8.2-.35.77-.78,1.73-1.28,2.86,9.39-2.85,33.6-7.81,59.05-6.99,28.51.92,45.65,6.78,71.71,16.75,23.16,8.86,51.95,30.27,58.09,34.93,1.92-2.25,3.78-4.43,5.57-6.51-4.29-3.51-19.15-14.36-33.75-22.48-5.89-3.27-14.79-7.13-24.89-10.89Z"/><path class="cls-40" d="M398.44,343.88c-1.38,9.28-2.87,20.46-3.14,27.32-.52,13.38.92,37.12,3.8,53.91,2.89,16.79,9.05,35.16,16.92,53.78,7.87,18.63,30.96,54.44,44.32,72.28,13.36,17.84,52.62,58.11,69.01,71.1,16.4,12.99,45.12,31.88,62.44,40.01,17.32,8.13,61.78,23.09,87.63,24.53,25.84,1.44,59.42-.26,87.63-8,28.2-7.74,55.75-20.46,74.11-30.7,15.32-8.54,31.93-18.18,50.72-35-4.22,2.6-6.6,3.69-6.6,3.69,0,0,2.38-1.09,6.6-3.69,3.73-3.34,7.55-6.96,11.46-10.91,21.8-22.04,45.76-57.19,49.31-62.47-.51-.1-1.07-.21-1.66-.33-7.58,10.85-28.86,38.62-45.25,54.84-16.97,16.79-48.45,42.06-78.62,57.54-30.17,15.48-80.28,30.3-107.56,31.22-27.28.92-61.65,1.05-107.04-15.74-45.39-16.79-82.25-46.83-101.01-64.8-17.56-16.82-46.72-49.16-61.57-71.41-.51.1-1.03.22-1.53.31.49-.09,1.02-.21,1.53-.31-1.01-1.52-1.96-3-2.84-4.41-1.69-2.75-3.36-5.47-5-8.18-.8.29-1.25.44-1.25.44,0,0,.45-.16,1.25-.44-.7-1.15-1.38-2.29-2.07-3.42-.95.3-1.46.45-1.46.45,0,0,.51-.15,1.46-.45-1.73-2.88-3.43-5.73-5.07-8.55-.71.3-1.11.47-1.11.47,0,0,.4-.17,1.11-.47-3.41-5.85-6.61-11.55-9.51-17.08-1.22.49-1.92.76-1.92.76,0,0,.7-.27,1.92-.76-2.18-4.15-4.19-8.2-5.99-12.15-.88.11-1.35.15-1.35.15,0,0,.47-.04,1.35-.15-1.22-2.67-2.35-5.29-3.37-7.86-1.56.37-2.44.57-2.44.57,0,0,.88-.2,2.44-.57-.28-.7-.54-1.4-.8-2.09-.79.2-1.24.3-1.24.3,0,0,.45-.11,1.24-.3-.19-.51-.4-1.03-.58-1.53-.3-.83-.62-1.71-.93-2.62-.59.09-.91.13-.91.13,0,0,.31-.04.91-.13-.77-2.21-1.58-4.63-2.4-7.24-1.05.15-1.66.24-1.66.24,0,0,.6-.08,1.66-.24-.42-1.34-.85-2.72-1.27-4.15-1.14.18-1.78.28-1.78.28,0,0,.64-.1,1.78-.28-.54-1.81-1.08-3.69-1.62-5.62-1.13.09-1.73.13-1.73.13,0,0,.6-.04,1.73-.13-.27-.98-.55-1.97-.82-2.97-.6-.01-1.2-.02-1.79-.05.59.03,1.19.04,1.79.05-4.93-18.28-9.52-41.28-10.14-62.27-.35-11.76-.04-24.47.91-37.02Z"/><path class="cls-1" d="M665.43,237.96c-29.22,29.02-66.8,75.4-66.8,75.4,0,0,20.55-19.33,31.94-31.82,11.39-12.5,32.94-37.79,43.44-47.32s34.63-32.62,59.76-49.31c25.13-16.69,67.66-30.35,67.66-30.35,0,0-28.22,4.28-53.82,18.78-25.6,14.49-52.96,35.62-82.18,64.64Z"/><path class="cls-2" d="M470.6,610.33s11.28,12.2,16.4,17.45c5.12,5.25,23.87,23.09,23.87,23.09,0,0-12.53-7.41-23.48-16.33-8.24-6.71-23.97-22.68-36.51-35.98,7.43,9.58,14.33,18.13,19.72,24.37-5.39-6.25-12.29-14.79-19.72-24.37-4.13-4.38-7.91-8.46-10.97-11.83-12.36-13.62-47.7-62.96-47.7-62.96,3.45,9.31,13.07,25.45,19.58,37.39,6.5,11.94,20.39,30.56,35.61,46.57,3.78,3.98,8.28,8.4,13.1,12.92-10.93-12.8-19.27-23.41-19.27-23.41,0,0,8.34,10.62,19.27,23.41,14.58,13.65,32.13,28.13,41.99,33.65,13.12,7.35,49.32,20.33,49.32,20.33,0,0,8.53,3.15,0-.66-4.09-1.82-13.55-8.2-23.45-15.51,2.47,2.4,4.84,4.66,7.03,6.63-2.18-1.97-4.56-4.23-7.03-6.63-10.76-7.93-22.04-16.94-27.57-22.4-10.63-10.49-30.17-25.71-30.17-25.71Z"/><path class="cls-4" d="M469.47,186.13c3.27-.22,6.43-.36,9.52-.42,13.64-.26,33.71,3.94,33.71,3.94,0,0-29.25-1.31-52.47,1.18-4.57.49-9.64,1.41-14.98,2.64-6.06,2.35-13.88,5.55-21.28,9.07,25.55-7.96,51.34-10.76,88.95-7.95,39.88,2.97,72.76,21.43,90.16,32.01,15.28,9.29,36.37,24.72,41.27,28.34,2.8-3.16,5.66-6.37,8.59-9.6-8.03-4.89-41.05-24.9-65.08-37.72-26.94-14.37-79.17-26.27-118.4-21.49Z"/><path class="cls-60" d="M598.63,201.06c-29.51-14.43-59.62-25.36-93.17-30.59-33.55-5.22-80.51,2.17-100.58,9.03-15.25,5.22-45.03,19.04-58.46,25.38-14.1,10.23-28.67,22.94-41.96,38.21,10.35-8.08,28.79-21.57,50.84-33.59,34.24-18.67,76.87-33.49,103.89-36.25,27.02-2.75,62.05,6.17,62.05,6.17,0,0-34.76,2.1-56.8,4.72-22.04,2.62-53.78,10.63-80.67,27.28,0,0,28.73-12.86,47.62-18.36,14.61-4.26,26.94-6.16,38.09-6.93,39.23-4.78,91.46,7.12,118.4,21.49,24.04,12.82,57.05,32.82,65.08,37.72,2.11-2.32,4.26-4.66,6.46-7.01-6.22-4.45-34.67-24.5-60.79-37.26Z"/><path class="cls-58" d="M1055.69,365.46c2.28,20.84,4.61,58.49,1.53,85.21-.84,7.29-2.07,15.09-3.79,23.36-.14,3.31-.23,5.31-.23,5.31,0,0,.09-2,.23-5.31-5.8,27.87-17.2,61.16-38.45,98.79-27.55,48.8-59.55,87.1-102.58,122.26-43.03,35.16-105.73,54.83-158.99,57.72-53.26,2.89-97.6-5.77-141.15-17.58-43.55-11.81-89.72-36.47-105.2-46.96-8.19-5.56-26.17-18.06-43.85-31.5,1.35,1.54,2.61,2.95,3.71,4.13-1.1-1.17-2.36-2.58-3.71-4.13-5.05-3.84-10.08-7.76-14.85-11.62,1.49,1.85,3.12,3.81,4.87,5.85,2.4,1.66,3.84,2.64,3.84,2.64,0,0-1.44-.98-3.84-2.64,5.28,6.11,11.72,12.83,18.93,18.9.57.48,1.15.96,1.72,1.44,3.88,2.29,6.32,3.72,6.32,3.72,0,0-2.44-1.43-6.32-3.72,4.78,3.96,9.57,7.62,14.08,10.91,1.04.42,2.02.79,2.91,1.1-.9-.31-1.87-.68-2.91-1.1,13.77,10.04,24.87,16.51,24.87,16.51-21.51-6.03-84.22-36.2-109.66-55.36-25.45-19.15-65.85-59.64-81.59-84.65-15.74-25.01-30.61-62.96-34.81-78.53-4.2-15.57-10.32-46.35-11.02-63.66-.7-17.32-.17-48.45,10.49-79.23,10.67-30.78,17.32-39.53,25.19-52.47,7.87-12.94,25.54-34.46,43.03-47.05,17.49-12.59,37.78-24.66,64.89-33.76,1.54-.52,3.08-1.01,4.62-1.49,7.4-3.52,15.23-6.72,21.28-9.07-21.79,5.02-48.16,15.22-64.39,22.81-20.2,9.44-46.7,31.35-62.7,53.26-16,21.91-22.3,33.19-30.7,58.11-8.4,24.92-12.07,40.01-14.04,65.72-1.97,25.71,4.33,61.92,8.13,78.97,3.8,17.05,17.45,51.68,25.97,69.65,8.53,17.97,33.97,52.25,52.86,72.54,18.89,20.29,48.62,44.08,59.29,51.42,10.67,7.35,26.59,16.09,26.59,16.09,0,0-18.93-6.86-32.53-14.87-13.6-8-62.66-46.09-80.89-67.07-18.23-20.99-43.29-58.15-55.01-85.09-11.72-26.93-14.69-45.04-14.69-45.04,0,0,1.05,24.4,14.34,53.26,13.29,28.86,40.23,65.41,53.87,81.15,9.75,11.25,35.04,34.02,52.45,48.91,17.92,12.57,37.45,24,57.92,33.12,45.91,20.46,124.88,42.5,124.88,42.5,0,0,85,30.17,146.39,32.27,61.39,2.1,145.87-13.9,197.55-54.83,40.03-31.7,69.5-65.43,88.81-93.78-2.68,1.52-4.24,2.31-4.24,2.31,0,0,1.57-.79,4.24-2.31,3.85-5.65,7.28-11.08,10.33-16.24-3.42,2.9-5.47,4.56-5.47,4.56,0,0,2.05-1.66,5.47-4.56,1.41-2.39,2.74-4.72,3.97-6.99,1.14-2.09,2.31-4.31,3.5-6.63-2.83,2.57-4.55,4.01-4.55,4.01,0,0,1.72-1.44,4.55-4.01,3.52-6.87,7.24-14.7,10.95-23.1-1.63,2.37-2.65,3.76-2.65,3.76,0,0,1.02-1.39,2.65-3.76,14.18-32.01,28.35-72.14,31.46-97.77,3.69-30.46,3.52-65.38-3.89-96.38Z"/><path class="cls-42" d="M567.93,359.13s13.77-16,20.59-23.61c6.82-7.61,17.45-23.74,17.45-23.74,0,0-27.94,30.3-37.78,42.24-9.84,11.94-19.94,23.44-30.17,34.19-10.23,10.76-27.63,28.25-42.59,38.39-14.95,10.14-26.67,15.65-41.98,20.64-13.1,4.27-35.8,7.76-42.07,8.68.82,2.61,1.62,5.03,2.4,7.24,3.69-.55,18.65-3.16,42.38-12.2,27.55-10.49,48.14-25.84,63.36-39.22,15.22-13.38,47.75-46.96,47.75-46.96,0,0,14.63-17.32,21.74-26.53-8.4,8.3-21.08,20.89-21.08,20.89Z"/><path class="cls-56" d="M593.9,333.42c-1.27,1.25-2.97,2.92-4.89,4.82-7.11,9.21-21.74,26.53-21.74,26.53,0,0-17.45,26.24-43.03,46.57-25.58,20.33-37.39,31.74-57.72,40.14-17.98,7.42-45.18,14.33-51.23,15.83.26.7.52,1.39.8,2.09,9.85-2.36,47.17-11.74,65.51-22.38,21.25-12.33,39.35-30.17,53.65-42.24,14.3-12.07,39.88-42.63,49.32-53.39,5.88-6.7,15.84-21.04,22.51-30.9-4.94,6-8.47,10.3-8.47,10.3,0,0,3.54-4.3,8.47-10.3,4.04-5.97,6.87-10.29,6.87-10.29,0,0-13.25,16.53-20.07,23.22Z"/><g class="cls-18"><path class="cls-53" d="M857.04,476.53c26.89,16.79,56.54,30.56,70.18,36.86,11.5,5.31,31.39,9.68,37.35,10.93,4.1-7.09,8.11-14.27,11.56-20.88-8.16-.28-29.44-2.26-55.69-14.35-33.76-15.54-57.19-31.1-67.51-39.67-10.32-8.57-46.52-38.48-66.11-57.19-17.79-16.99-62.97-59.65-71.13-67.36-5.05,4.62-10.49,9.65-15.92,14.83,5.63,5.51,40.76,39.84,60.99,58.38,22.04,20.2,69.39,61.65,96.28,78.44Z"/><path class="cls-53" d="M852.93,449.43c10.32,8.57,33.76,24.14,67.51,39.67,26.25,12.08,47.53,14.06,55.69,14.35,1.2-2.3,2.33-4.52,3.37-6.64-10.72,1.7-26.47.16-44.02-6.3-19.06-7.02-58.59-28.31-83.78-47.37-25.19-19.06-78.01-68.39-95.32-85.7-14.13-14.13-30.23-31.27-35.68-37.11-1.62,1.46-3.29,2.99-5.02,4.56,8.16,7.71,53.35,50.36,71.13,67.36,19.59,18.71,55.79,48.62,66.11,57.19Z"/><path class="cls-53" d="M823.59,461.99c18.76,15.5,58.24,37.23,84.74,49.43,21.78,10.03,46.12,15.09,54.1,16.57.72-1.22,1.43-2.45,2.14-3.68-5.96-1.24-25.85-5.62-37.35-10.93-13.64-6.3-43.29-20.07-70.18-36.86-26.89-16.79-74.25-58.24-96.28-78.44-20.23-18.54-55.36-52.87-60.99-58.38-.9.86-1.8,1.72-2.7,2.59,5.63,5.8,38.17,39.32,49.65,50.81,12.59,12.59,58.11,53.39,76.87,68.89Z"/><path class="cls-53" d="M821.63,468.08c25.45,18.16,52.6,35.74,77.26,46.49,23.31,10.17,50.12,17.4,60.41,18.72,1.04-1.74,2.08-3.51,3.13-5.29-7.98-1.49-32.32-6.55-54.1-16.57-26.5-12.2-65.98-33.93-84.74-49.43-18.76-15.5-64.28-56.29-76.87-68.89-11.49-11.49-44.03-45.01-49.65-50.81-2.89,2.78-5.75,5.58-8.53,8.37,7.09,6.55,35.63,33,49.92,47.29,16.4,16.4,57.72,51.97,83.17,70.12Z"/><path class="cls-53" d="M851.71,443.13c25.19,19.06,64.71,40.35,83.78,47.37,17.55,6.47,33.3,8.01,44.02,6.3.95-1.94,1.83-3.78,2.62-5.53-5.82,1.23-22.06,3.46-42.62-3.9-25.89-9.27-59.47-28.33-87.28-48.97-19.53-14.49-91.47-82.9-105.29-98.47-10.64-11.99-18.15-20.85-21.05-24.29-1.64,1.47-3.37,3.02-5.18,4.67,5.45,5.84,21.55,22.99,35.68,37.11,17.32,17.32,70.14,66.64,95.32,85.7Z"/><path class="cls-53" d="M759.74,323.41c5.62,5.42,26.12,23.61,37.14,34.28,11.02,10.67,35.42,35.24,43.29,42.24,7.87,7,32.44,30.08,43.9,38.22,11.46,8.13,29.27,17.4,40.73,19.83,11.47,2.43,39.2,2.82,52.14-1.03,9.62-2.86,18.7-8.25,22.73-10.83.64-2.12,1.26-4.3,1.86-6.52-2.55,2.42-8.07,7.23-14.36,10.19-8.66,4.07-38.28,12.63-63.47,5.15-25.19-7.48-45.67-23.91-61.94-38.99-16.27-15.09-62.83-60.34-78.44-76.08-13.58-13.7-37.2-32.76-43.09-37.47-.54.51-1.08,1.02-1.62,1.53,1.39,1.49,3.71,3.98,6.66,7.15,4.39,3.55,10.94,8.95,14.47,12.35Z"/><path class="cls-53" d="M852.23,438.41c27.81,20.64,61.39,39.7,87.28,48.97,20.55,7.36,36.79,5.13,42.62,3.9.44-.96.86-1.91,1.24-2.8.44-1.02.87-2.05,1.31-3.07-5.38.89-19.32,2.31-36.95-2.57-22.74-6.3-52.3-26.24-75.38-44.77-23.09-18.54-68.04-57.54-85.18-76.78-14.87-16.69-43.3-47.6-50.56-55.48-3.15,2.97-6.16,5.77-9.04,8.35-.54.48-1.12,1-1.68,1.51,2.9,3.45,10.41,12.3,21.05,24.29,13.82,15.57,85.76,83.98,105.29,98.47Z"/><path class="cls-53" d="M872.35,438.06c23.09,18.54,52.65,38.48,75.38,44.77,17.63,4.88,31.57,3.46,36.95,2.57,4.81-11.27,9.64-22.55,13.78-35.41-5.62,3.4-19.17,10.61-35.34,12.2-21.34,2.1-53.35-4.55-73.98-17.84-20.64-13.29-74.33-59.64-88.68-74.51-10.7-11.09-40.65-43.18-55.19-58.79-2.61-2.11-4.45-3.57-4.45-3.57,0,0,1.85,1.46,4.45,3.57-2.96-3.17-5.27-5.66-6.66-7.15-.67.63-1.34,1.27-2,1.89,7.26,7.89,35.69,38.79,50.56,55.48,17.14,19.24,62.09,58.24,85.18,76.78Z"/><path class="cls-53" d="M912.06,597.89c4.94-6.76,8.03-11.52,8.03-11.52,0,0-3.09,4.76-8.03,11.52,10.4-10,22.32-25.57,30.9-38.45,3.18-4.77,7.49-11.56,12.17-19.24-.67-.12-1.5-.27-2.47-.46-3.55,5.27-27.52,40.43-49.31,62.47-3.91,3.95-7.73,7.57-11.46,10.91,3.57-2.2,8.46-5.48,14.39-10.12,1.85-1.45,3.79-3.18,5.78-5.1Z"/><path class="cls-53" d="M399.94,293.94c-7.17,28.86-9.09,75.12-7.17,101.92,1.92,26.8,10.14,64.76,10.14,64.76,0,0-5.03-12.21-9.29-31.07.72,10.38,3.02,29.02,10.34,45.76,10.84,24.84,41.8,74.33,67.16,103.02,25.36,28.68,69.76,66.64,91.98,80.28,22.23,13.64,45.66,23.44,72.25,30.96,26.59,7.52,83.78,22.04,139.75,3.67,55.97-18.36,90.07-45.82,108.61-62.61,10.83-9.81,21.41-23.24,28.35-32.73-1.99,1.92-3.94,3.65-5.78,5.1-5.93,4.65-10.82,7.92-14.39,10.12-18.79,16.82-35.4,26.46-50.72,35-18.36,10.23-45.91,22.96-74.11,30.7-28.2,7.74-61.78,9.44-87.63,8-25.84-1.44-70.31-16.4-87.63-24.53-17.32-8.13-46.04-27.02-62.44-40.01-16.4-12.99-55.65-53.26-69.01-71.1-13.36-17.84-36.45-53.65-44.32-72.28-7.87-18.63-14.04-36.99-16.92-53.78-2.89-16.79-4.33-40.53-3.8-53.91.27-6.85,1.75-18.03,3.14-27.32,1.47-19.5,4.46-38.62,8.93-53.23,5.4-17.65,13.42-36.42,17.29-45.13-1.13.34-2.05.66-2.73.92.68-.27,1.6-.58,2.73-.92.5-1.13.93-2.09,1.28-2.86-2.33.74-4.57,1.53-6.73,2.36-3.36,6.02-13.38,25.14-19.28,48.9Z"/><path class="cls-53" d="M492.26,220.22c-4.4-.55-8.46-.83-11.51-.61,3.05-.21,7.12.07,11.51.61,10.16-.45,17.52-.44,17.52-.44,0,0-21.59-4.75-47.33-1.68-5.71,1.21-11.14,2.58-16,3.88,4.86-1.3,10.29-2.67,16-3.88-6.61.79-13.5,2.09-20.36,4.13-26.21,7.78-54.56,26.97-79.08,56.1,31.8-30.44,59.43-43.98,80.05-51.29,12.44-4.41,33.97-6.14,49.2-6.82Z"/><path class="cls-53" d="M957.15,536.88c-6.58-1.63-43.09-10.91-66.26-21.7-11.97-5.57-29.74-16.05-48.06-28.02-10.76-6.27-27.76-16.35-34.18-21.13-9.71-7.21-55.75-41.58-73.72-58-16-14.62-46.74-44.03-53.3-50.31-1,1.05-1.99,2.09-2.94,3.11,7,6.84,37.56,36.59,56.94,53.55,22,19.25,67.78,55.33,93.75,71.2,25.97,15.87,62.18,35.42,87.1,44.08,15.64,5.43,27.71,8.33,34.54,9.74.27-.38.52-.75.75-1.08-.23.34-.48.7-.75,1.08.59.12,1.15.23,1.66.33.3-.44.47-.7.47-.7,0,0-.17.26-.47.7.97.19,1.8.34,2.47.46.66-1.09,1.33-2.2,2.01-3.31Z"/><path class="cls-53" d="M808.64,466.04c6.43,4.78,23.42,14.86,34.18,21.13-20.77-13.57-42.25-29.05-56.75-41.46-25.07-21.45-89.98-82.42-100.37-92.19-1.4,1.42-2.75,2.82-4.08,4.21,6.56,6.28,37.3,35.69,53.3,50.31,17.97,16.42,64.01,50.79,73.72,58Z"/><path class="cls-53" d="M842.82,487.17c5.49,3.2,9.37,5.41,9.37,5.41,0,0-3.87-2.21-9.37-5.41,18.32,11.97,36.1,22.45,48.06,28.02,23.17,10.79,59.68,20.07,66.26,21.7.71-1.18,1.43-2.38,2.16-3.59-10.3-1.32-37.11-8.55-60.41-18.72-24.66-10.76-51.81-28.33-77.26-46.49-25.45-18.16-66.77-53.73-83.17-70.12-14.29-14.29-42.84-40.75-49.92-47.29-.95.95-1.9,1.9-2.83,2.85,10.39,9.77,75.31,70.74,100.37,92.19,14.5,12.41,35.97,27.89,56.75,41.46Z"/><path class="cls-53" d="M447.38,607.71c-15.22-16-29.1-34.63-35.61-46.57-6.5-11.94-16.12-28.07-19.58-37.39,0,0,35.34,49.35,47.7,62.96,3.06,3.37,6.85,7.46,10.97,11.83-22.23-28.66-49.28-66.63-55.31-80.4-8.05-18.36-23.79-66.99-28.33-90.42-4.55-23.44-7.17-56.14-5.25-91.12,1.62-29.53,13.22-59.07,16.79-67.55-8.57,6.95-15.63,14.16-19.81,20.41-7.69,11.49-21.88,38.45-27.7,49.67-2.14,15.69-3.85,34.56-3.48,53.21,3.89,28.6,11.42,74.69,22.13,99.39,16.27,37.52,38.83,71.62,54.31,93.92,15.48,22.3,55.91,55.09,78.06,72.28,10.65,8.26,23.18,16.22,34.79,23.07,6.76,3.12,11.59,5.22,11.59,5.22,0,0-4.83-2.1-11.59-5.22,12.53,7.4,23.97,13.52,30.79,17.33,0,0-31.61-23.74-52.34-41.06-10.4-8.69-24.03-23.78-35.04-36.67-4.82-4.52-9.32-8.94-13.1-12.92Z"/><path class="cls-53" d="M524.25,411.34c25.58-20.33,43.03-46.57,43.03-46.57,0,0-32.53,33.58-47.75,46.96-15.22,13.38-35.81,28.73-63.36,39.22-23.73,9.04-38.69,11.65-42.38,12.2.32.91.63,1.79.93,2.62.18.51.39,1.02.58,1.53,6.06-1.5,33.25-8.41,51.23-15.83,20.33-8.4,32.14-19.81,57.72-40.14Z"/><path class="cls-53" d="M594.3,422.1c17.71-18.36,54.83-59.95,75.16-81.46,20.33-21.51,63.1-59.55,86.45-76.61,20.55-15.01,57.24-38.33,85.59-50.16-29.98,7.73-57.18,19.88-75.76,30.74-27.81,16.27-64.8,42.5-101.79,73.72-36.99,31.22-82.12,86.05-99.96,108.61-17.84,22.56-55.79,48.54-77.31,57.63-19.14,8.09-46,19.49-51.71,21.92,1.64,2.82,3.34,5.67,5.07,8.55,6.14-1.93,31.05-10.14,60.1-25.26,33.54-17.45,76.43-49.32,94.14-67.69Z"/><path class="cls-53" d="M976.94,456.95c-12.94,3.85-40.67,3.45-52.14,1.03-11.47-2.43-29.28-11.69-40.73-19.83-11.46-8.13-36.03-31.22-43.9-38.22-7.87-7-32.27-31.57-43.29-42.24-11.02-10.67-31.51-28.86-37.14-34.28-3.53-3.4-10.08-8.8-14.47-12.35,14.54,15.6,44.49,47.7,55.19,58.79,14.34,14.87,68.04,61.22,88.68,74.51,20.64,13.29,52.65,19.94,73.98,17.84,16.16-1.59,29.71-8.8,35.34-12.2.41-1.28.82-2.57,1.21-3.88-4.03,2.58-13.12,7.97-22.73,10.83Z"/><path class="cls-53" d="M388.74,611.03s9.9,11.17,21.59,22.28c3.41,2.57,5.63,4.22,5.63,4.22,0,0-2.23-1.65-5.63-4.22,4.28,4.07,8.81,8.12,13.18,11.61,5.12,2.81,7.91,3.89,7.91,3.89,0,0-2.79-1.08-7.91-3.89,1.92,1.54,3.81,2.97,5.63,4.24,16.16,11.27,44.21,27.21,58.83,33.07-4.51-3.29-9.3-6.96-14.08-10.91-9.24-5.46-26.66-15.85-38.98-23.74-17.49-11.19-46.17-36.55-46.17-36.55Z"/><path class="cls-53" d="M387.87,384.54c.42,16.87,2.92,32.42,5.76,45.01-.35-5.01-.33-8.11-.33-8.11,0,0-.02,3.09.33,8.11,4.25,18.86,9.29,31.07,9.29,31.07,0,0-8.22-37.95-10.14-64.76-1.92-26.8,0-73.07,7.17-101.92,5.9-23.76,15.92-42.89,19.28-48.9-.25.09-.5.19-.74.28-1.97.78-3.95,1.63-5.94,2.54-3.01,5.99-10.97,22.6-16.27,41.01-6.65,23.09-9.44,53.52-8.4,95.67Z"/><path class="cls-53" d="M466.31,439.54c16.35-6.21,30.17-18.98,30.17-18.98,0,0-25.71,16.62-50.2,20.71-19.64,3.28-33.2,4.52-37.8,4.88.54,1.94,1.08,3.82,1.62,5.62,8.12-1.28,41.86-6.79,56.2-12.23Z"/><path class="cls-53" d="M385.25,613.57c-12.07-10.14-41.63-41.71-54.57-63.58-12.94-21.86-27.46-57.19-32.18-76.61-3.95-16.24-8.83-54.38-10.54-76.45-.62,26.18,2.46,57.67,8.76,80.89,7.67,28.23,17.52,57.13,37.98,86.86,20.46,29.73,50.55,53.87,68.39,66.99,8.67,6.38,15.59,10.59,20.43,13.25-4.37-3.5-8.89-7.55-13.18-11.61-6.46-4.88-17.19-13.1-25.09-19.74Z"/><path class="cls-53" d="M629.82,721.11c-.15-.04-.23-.07-.23-.07,0,0,.08.02.23.07Z"/><path class="cls-53" d="M1018.92,385.76c-1.57,30.26-13.12,72.06-13.12,72.06,0,0,9.62-22.91,13.29-40.93,3.67-18.01,5.95-60.87,2.37-81.91-2.78-16.35-9.11-40.53-11.8-50.49-1.07-1.24-2.08-2.38-3.02-3.42,1.13,5.96,3.51,18.5,6.16,32.1,3.67,18.89,7.7,42.33,6.12,72.58Z"/><path class="cls-53" d="M366.67,332.14c.72,16.92,2.64,40.39,5.17,62.41.13-18.26.89-58.71,4.97-82.25,4.35-25.17,17.13-48.95,21.84-57.1-3.94,2.35-7.8,4.88-11.49,7.5-4.75,7.38-12.77,22.69-17.48,47.5-1.36,7.19-2.34,14.56-3.01,21.94Z"/><path class="cls-53" d="M1005.27,423.41c-1.1,5.72-2.36,11.08-3.74,16.18.96-.91,1.51-1.49,1.51-1.49,0,0-.55.58-1.51,1.49-.6,2.22-1.22,4.4-1.86,6.52,1.4-.89,2.19-1.45,2.19-1.45,0,0-.8.56-2.19,1.45-.4,1.31-.8,2.6-1.21,3.88,1.8-1.09,2.79-1.79,2.79-1.79,0,0-.99.7-2.79,1.79-4.14,12.86-8.97,24.14-13.78,35.41,1.56-.26,2.41-.47,2.41-.47,0,0-.85.21-2.41.47-.44,1.02-.87,2.05-1.31,3.07-.38.9-.8,1.84-1.24,2.8,1.51-.32,2.33-.57,2.33-.57,0,0-.82.25-2.33.57-.79,1.75-1.67,3.59-2.62,5.53.93-.15,1.83-.31,2.68-.5-.85.19-1.75.36-2.68.5-1.04,2.12-2.17,4.35-3.37,6.64,2.33.08,3.6.02,3.6.02,0,0-1.27.06-3.6-.02-3.45,6.6-7.46,13.79-11.56,20.88,1.11.23,1.74.35,1.74.35,0,0-.63-.12-1.74-.35-.71,1.23-1.43,2.46-2.14,3.68,1.73.32,2.7.48,2.7.48,0,0-.98-.16-2.7-.48-1.05,1.78-2.09,3.55-3.13,5.29.6.08,1.15.14,1.63.17-.48-.04-1.04-.1-1.63-.17-.72,1.21-1.44,2.41-2.16,3.59.67.17,1.04.25,1.04.25,0,0-.36-.09-1.04-.25-.68,1.12-1.35,2.23-2.01,3.31,1.39.25,2.13.35,2.13.35,0,0-.73-.1-2.13-.35-4.68,7.67-8.99,14.47-12.17,19.24-8.59,12.88-20.5,28.45-30.9,38.45-6.94,9.49-17.52,22.93-28.35,32.73-18.54,16.79-52.65,44.25-108.61,62.61-55.97,18.36-113.16,3.85-139.75-3.67-26.59-7.52-50.02-17.32-72.25-30.96-22.23-13.64-66.62-51.6-91.98-80.28-25.36-28.68-56.32-78.18-67.16-103.02-7.31-16.75-9.61-35.39-10.34-45.76-2.84-12.59-5.34-28.14-5.76-45.01-1.05-42.15,1.75-72.58,8.4-95.67,5.3-18.41,13.26-35.02,16.27-41.01-4.66,2.14-9.33,4.62-13.89,7.34-4.71,8.15-17.48,31.94-21.84,57.1-4.07,23.54-4.84,63.99-4.97,82.25,1.88,16.41,4.1,32.01,6.41,43.5,3.96,19.71,10.54,37.27,19.03,53.92,14.68,21.38,42.96,61.93,62.03,85.31,26.76,32.79,70.57,72.41,109.93,93.4,30.32,16.17,66.41,31.08,104.47,38.4,26.1,2.57,63.12,1.75,98.59-8.15,45.09-12.58,51.07-21.16,80.7-39.82,29.62-18.66,46.63-43.43,67.59-64.85,20.96-21.42,46.03-63.05,58.1-84.22,12.07-21.16,27.81-67.34,32.5-96.27,4.69-28.94,2.13-67.43-4.52-99.44-5.08-24.48-10.27-40.56-12.42-46.77-4.07-3.2-7.47-5.65-7.47-5.65,0,0,16.4,51.29,20.07,84.08,3.67,32.79,3.54,48.8-1.57,75.43Z"/><path class="cls-53" d="M1011.19,415.77c-4.69,28.94-20.43,75.11-32.5,96.27-12.07,21.16-37.14,62.8-58.1,84.22-20.96,21.42-37.96,46.19-67.59,64.85-29.62,18.66-35.6,27.24-80.7,39.82-35.47,9.9-72.49,10.72-98.59,8.15,11.34,2.18,22.86,3.7,34.46,4.36,50.49,2.89,103.22-16.53,138.12-36.2,34.89-19.68,61.65-49.06,86.31-77.66,24.66-28.6,51.95-70.84,64.8-97.07,12.86-26.24,19.59-42.5,26.24-77.79,6.65-35.29,3.5-62.22,2.1-82.51-.84-12.11-5.91-30.57-9.86-43.49-.85-1.68-1.35-2.6-1.35-2.6,0,0,.5.92,1.35,2.6-1.4-4.57-2.65-8.43-3.53-11.09-.93-1.1-1.82-2.15-2.68-3.14,2.69,9.96,9.02,34.14,11.8,50.49,3.58,21.04,1.3,63.89-2.37,81.91-3.67,18.01-13.29,40.93-13.29,40.93,0,0,11.54-41.8,13.12-72.06,1.57-30.26-2.45-53.69-6.12-72.58-2.64-13.6-5.03-26.14-6.16-32.1-2.94-3.26-5.19-5.54-6.35-6.55-1.96-1.71-4.08-3.43-6.04-4.97,2.16,6.21,7.34,22.29,12.42,46.77,6.65,32.01,9.21,70.5,4.52,99.44Z"/><path class="cls-53" d="M371.84,394.55c-.04,5.86-.02,9.44-.02,9.44,0,0-.02-3.58.02-9.44-2.53-22.02-4.45-45.49-5.17-62.41-2.78,30.53-.36,61.36,1.61,81.08,2.45,24.49,13.9,57.72,23.92,79.23,10.01,21.51,27.5,47.75,40.8,65.06,13.29,17.32,46,51.6,46,51.6,0,0-37.5-48.97-57.67-77.83-9.03-12.92-17.16-25.81-24.04-39.31-5.92-8.62-9.63-14.13-9.63-14.13,0,0,3.71,5.51,9.63,14.13-8.49-16.65-15.07-34.21-19.03-53.92-2.31-11.49-4.53-27.09-6.41-43.5Z"/><path class="cls-53" d="M392.2,492.45c-10.01-21.51-21.47-54.74-23.92-79.23-1.97-19.72-4.39-50.55-1.61-81.08-.41-9.63-.44-17.15.04-21.07-.47,3.91-.45,11.43-.04,21.07.67-7.38,1.65-14.75,3.01-21.94,4.7-24.81,12.72-40.12,17.48-47.5-2.91,2.07-5.72,4.21-8.38,6.36-3.57,8.48-15.17,38.01-16.79,67.55-1.92,34.98.7,67.69,5.25,91.12,4.55,23.44,20.29,72.06,28.33,90.42,6.03,13.76,33.08,51.74,55.31,80.4,12.55,13.3,28.27,29.27,36.51,35.98,10.95,8.92,23.48,16.33,23.48,16.33,0,0-18.76-17.84-23.87-23.09-5.12-5.25-16.4-17.45-16.4-17.45,0,0,19.55,15.22,30.17,25.71,5.53,5.46,16.82,14.48,27.57,22.4-11.09-10.8-23.98-24.68-29.35-30.21-6.56-6.76-20-19.13-20-19.13,0,0-32.71-34.28-46-51.6-13.29-17.32-30.78-43.55-40.8-65.06Z"/><path class="cls-53" d="M358.97,289.48c4.18-6.25,11.24-13.46,19.81-20.41.66-1.56,1.04-2.41,1.04-2.41,0,0-.39.85-1.04,2.41,2.66-2.16,5.46-4.29,8.38-6.36,2.32-3.6,3.86-5.32,3.86-5.32,0,0-1.55,1.72-3.86,5.32,3.69-2.62,7.55-5.15,11.49-7.5,1.11-1.92,1.77-2.98,1.77-2.98,0,0-.66,1.06-1.77,2.98,4.56-2.72,9.23-5.2,13.89-7.34.77-1.52,1.22-2.37,1.22-2.37,0,0-.45.85-1.22,2.37,1.99-.91,3.97-1.77,5.94-2.54.24-.1.49-.19.74-.28.72-1.29,1.14-1.99,1.14-1.99,0,0-.42.7-1.14,1.99,2.16-.83,4.4-1.62,6.73-2.36.62-1.36.97-2.12.97-2.12,0,0-.36.76-.97,2.12,23.52-7.5,54.82-10.41,75.61-8.2,15.24,1.62,39.31,8.56,58.89,15.87-6.08-3.87-16.98-10.11-30.56-14.82-21.16-7.35-50.9-8.57-50.9-8.57,0,0,22.21-3.67,43.38-.87,0,0-16.62-4.18-30.11-5.86-15.24.68-36.77,2.41-49.2,6.82-20.62,7.31-48.25,20.85-80.05,51.29-6.89,8.19-13.49,17.16-19.65,26.89,6.16-9.73,12.75-18.7,19.65-26.89-.17.16-.33.31-.5.47-9.99,9.61-18.96,20.83-26.63,32.81-1.34,6.72-3.09,16.32-4.61,27.53,5.82-11.22,20.01-38.18,27.7-49.67Z"/><path class="cls-53" d="M810.43,73.91c-37.6-12.42-84.3-18.89-131-16.97-46.7,1.92-105.82,20.46-147.62,47.57-41.53,26.94-69.93,61.97-70.29,62.42,3.43-.19,6.88-.32,10.36-.36,12.54-11.79,40.99-40.47,69.03-58.12,28.33-17.84,75.82-38.57,137.21-43.29,61.39-4.72,119.9,9.71,171.58,34.37,43.23,20.63,75.06,49,84.32,57.75,10.63,2.91,22,6.49,32.54,10.73-9.67-9.24-30.6-27.39-50.67-42.15-21.86-16.09-67.86-39.53-105.47-51.95Z"/><path class="cls-53" d="M924.64,118.34c-38.01-29.23-85.7-52.47-135.02-64.01-49.32-11.54-108.26-14.17-152.34-2.97-44.08,11.19-103.72,38.83-126.63,57.02-22.76,18.07-48.45,47.18-57.71,59.22,2.84-.27,5.7-.49,8.57-.65.36-.45,28.76-35.48,70.29-62.42,41.8-27.11,100.92-45.65,147.62-47.57,46.7-1.92,93.4,4.55,131,16.97,37.6,12.42,83.6,35.85,105.47,51.95,20.06,14.77,41,32.91,50.67,42.15,3.68,1.48,7.26,3.04,10.66,4.69,5.03,2.42,9.74,4.77,14.2,7.06-5.63-6.15-32.96-35.42-66.78-61.42Z"/><path class="cls-53" d="M432.82,170.54c4.76-.96,9.61-1.73,14.54-2.34,3.77-5.82,35.86-53.39,99.32-87.82,67.69-36.73,128.82-49.58,215.65-35.94,86.84,13.64,149.28,58.52,176.56,80.55,25.7,20.75,48.91,44.84,60.07,58.75,13.2,7.13,23.94,13.9,33.4,21.16-6.63-10.95-20.68-33-36.54-50.88-22.04-24.84-72.06-79.76-175.6-116.13C716.68,1.51,618.39,2.9,526.39,53.11c-48.95,26.72-82.65,61.19-103.47,87.61,1.43-.91,2.89-1.8,4.39-2.62-1.5.83-2.95,1.71-4.39,2.62-14.44,18.32-22.68,32.75-25.52,38.04,8.71-2.45,20.01-5.11,35.41-8.22Z"/><path class="cls-53" d="M938.9,124.99c-27.28-22.03-89.72-66.91-176.56-80.55-86.84-13.64-147.97-.79-215.65,35.94-63.45,34.43-95.55,82.01-99.32,87.82,1.85-.23,3.71-.43,5.58-.61,9.25-12.04,34.94-41.15,57.71-59.22,22.91-18.19,82.55-45.82,126.63-57.02,44.08-11.19,103.02-8.57,152.34,2.97,49.32,11.54,97.01,34.78,135.02,64.01,33.82,26.01,61.16,55.28,66.78,61.42,2.6,1.34,5.12,2.66,7.54,3.98-11.16-13.91-34.37-38-60.07-58.75Z"/><path class="cls-53" d="M512.92,194.59c-39.88-2.97-66.46.35-93.57,9.44-27.11,9.09-47.4,21.16-64.89,33.76-17.49,12.59-35.16,34.11-43.03,47.05-7.87,12.94-14.52,21.69-25.19,52.47-10.67,30.78-11.19,61.92-10.49,79.23.7,17.32,6.82,48.1,11.02,63.66,4.2,15.57,19.06,53.52,34.81,78.53,15.74,25.01,56.14,65.5,81.59,84.65,25.45,19.15,88.15,49.32,109.66,55.36,0,0-11.1-6.47-24.87-16.51-14.62-5.86-42.66-21.81-58.83-33.07-1.82-1.27-3.71-2.7-5.63-4.24-4.84-2.66-11.76-6.87-20.43-13.25-17.84-13.12-47.92-37.25-68.39-66.99-20.46-29.73-30.32-58.63-37.98-86.86-6.3-23.22-9.39-54.71-8.76-80.89-.34-4.31-.55-8.02-.61-10.83.06,2.8.28,6.51.61,10.83.13-5.65.44-11.06.92-16.07,2.31-23.84,17.65-65.33,28.06-86.23-8.97,12.79-15.74,24.83-18.44,33.41-7.87,25.01-14.87,55.79-15.04,80.8-.17,25.01,14.25,93.66,14.25,93.66-9.44-22.3-16.79-61.39-17.58-92.61-.79-31.22,7.77-77.24,21.15-102.95,13.38-25.71,49.43-74.4,102.19-89.83,52.76-15.43,93.11-16.84,146.1-.58,46.39,14.23,79.72,40.53,87.3,46.86,2.47-2.78,4.96-5.6,7.49-8.45-4.91-3.62-25.99-19.05-41.27-28.34-17.4-10.58-50.28-29.03-90.16-32.01Z"/><path class="cls-53" d="M678.12,65.17c-61.39,4.72-108.88,25.45-137.21,43.29-28.03,17.65-56.49,46.33-69.03,58.12,3.1-.04,6.22-.02,9.34.06,52.4-55.22,112.68-79.61,112.68-79.61-20.29,6.82-43.73,18.71-68.74,37.08-22.88,16.8-46.87,42.15-46.87,42.15,0,0,24-25.35,46.87-42.15,25.01-18.36,48.45-30.26,68.74-37.08,0,0-60.28,24.39-112.68,79.61,1.16.03,2.32.07,3.48.12,58.17-57.07,116.64-92.15,207.84-92.15,65.73,0,164.87,28.9,216.54,76.61,7.07,1.52,15.72,3.53,24.94,6.06-9.27-8.74-41.1-37.12-84.32-57.75-51.68-24.66-110.19-39.09-171.58-34.37Z"/><path class="cls-53" d="M422.92,140.72c-21.3,13.61-35.35,36.11-39,42.39,3.74-1.41,8.12-2.84,13.48-4.35,2.84-5.29,11.08-19.72,25.52-38.04Z"/><path class="cls-53" d="M1094.3,283.79c-10.84-23.61-33.93-53.17-44.69-63.84-5.43-5.39-11.07-10.33-17.24-15.06,2.58,4.26,4.03,6.84,4.03,6.84,0,0-1.46-2.58-4.03-6.84-9.47-7.26-20.2-14.03-33.4-21.16.69.86,1.34,1.68,1.93,2.46-.6-.78-1.24-1.6-1.93-2.46-2.43-1.31-4.94-2.63-7.54-3.98.7.76,1.08,1.19,1.08,1.19,0,0-.38-.43-1.08-1.19-4.46-2.29-9.17-4.64-14.2-7.06-3.41-1.64-6.99-3.2-10.66-4.69.87.83,1.65,1.59,2.33,2.27-.68-.68-1.46-1.44-2.33-2.27-10.54-4.24-21.91-7.82-32.54-10.73,1.81,1.71,2.78,2.68,2.78,2.68,0,0-.97-.97-2.78-2.68-9.21-2.52-17.86-4.54-24.94-6.06,1.13,1.04,2.24,2.08,3.32,3.14-1.08-1.06-2.19-2.1-3.32-3.14-10.62-2.28-17.67-3.42-17.67-3.42-33.32-6.3-89.2.13-122.65,12.59-33.45,12.46-61.35,33.49-82.68,52.03-8.86,7.7-16.71,15.42-23.96,23.04.69.49,1.05.75,1.05.75,0,0-.37-.26-1.05-.75-.91.95-1.81,1.91-2.7,2.86.81.58,1.26.91,1.26.91,0,0-.45-.33-1.26-.91-2.2,2.35-4.35,4.69-6.46,7.01,1.17.71,1.82,1.11,1.82,1.11,0,0-.65-.4-1.82-1.11-2.93,3.24-5.79,6.44-8.59,9.6.68.5,1.05.78,1.05.78,0,0-.38-.28-1.05-.78-2.53,2.85-5.02,5.68-7.49,8.45,1.08.9,1.64,1.4,1.64,1.4,0,0-.56-.5-1.64-1.4-.78.88-1.57,1.76-2.35,2.63.65.4,1.01.63,1.01.63,0,0-.36-.23-1.01-.63-.19.21-.37.42-.56.63-1.13,1.26-2.39,2.69-3.74,4.22.61.43.95.67.95.67,0,0-.33-.24-.95-.67-3.2,3.64-6.96,7.99-11.13,12.83.8.65,1.23,1.05,1.23,1.13,0-.08-.43-.48-1.23-1.13-1.79,2.08-3.65,4.26-5.57,6.51.77.58,1.2.92,1.2.92,0,0-.43-.34-1.2-.92-16.99,19.9-38.53,45.52-54.77,64.59-24.14,28.33-47.4,50.72-71.19,64.36-23.21,13.31-55.58,24.46-79.89,24.01.27,1.01.54,2,.82,2.97,4.6-.36,18.15-1.6,37.8-4.88,24.49-4.09,50.2-20.71,50.2-20.71,0,0-13.82,12.77-30.17,18.98-14.33,5.44-48.08,10.95-56.2,12.23.43,1.43.85,2.81,1.27,4.15,6.26-.92,28.97-4.41,42.07-8.68,15.3-4.98,27.02-10.49,41.98-20.64,14.95-10.14,32.36-27.63,42.59-38.39,10.23-10.76,20.33-22.26,30.17-34.19,9.84-11.94,37.78-42.24,37.78-42.24,0,0-10.63,16.13-17.45,23.74-6.82,7.61-20.59,23.61-20.59,23.61,0,0,19.15-19.02,25.97-25.71,6.82-6.69,20.07-23.22,20.07-23.22,0,0-2.84,4.33-6.87,10.29,8.18-9.94,20.2-24.55,26.42-32.07,4.8-5.81,13.64-14.02,21.52-20.97,4.11-4.72,7.92-8.92,11.27-12.35,22.56-23.09,64.71-59.47,100.57-75.56,35.85-16.09,77.66-24.66,112.81-23.79,35.16.87,78.52,12.24,97.2,19.25,18.68,7.01,43.68,24.83,51.29,31.91,7.61,7.08,18.36,15.57,31.13,33.32,7.67,10.67,20.52,32.54,31.6,58.15,3.4,5.58,6.54,11.28,9.33,17.06-2.79-5.78-5.93-11.48-9.33-17.06,7.36,17.01,13.95,35.67,17.72,53.79,9.44,45.39,6.3,66.07,2.36,91.02-3.94,24.94-11.54,49.6-21.12,70.33-9.58,20.73-25.84,40.8-34.89,52.08-4.48,5.58-10.37,12.16-15.18,17.38,13.56-12.02,27.69-26.97,40.86-48.73,17.15-28.33,29.72-64.02,34-87.46,4.28-23.44,4.99-58.59,1.92-85.18-3.07-26.59-11.45-54.22-22.29-77.83ZM733.77,184.9c-25.13,16.69-49.27,39.78-59.76,49.31-10.49,9.53-32.04,34.82-43.44,47.32-11.39,12.5-31.94,31.82-31.94,31.82,0,0,37.58-46.38,66.8-75.4,29.22-29.02,56.58-50.14,82.18-64.64,25.6-14.49,53.82-18.78,53.82-18.78,0,0-42.53,13.66-67.66,30.35Z"/><path class="cls-53" d="M403.46,217.12c-52.76,15.43-88.81,64.12-102.19,89.83-13.38,25.71-21.93,71.73-21.15,102.95.79,31.22,8.13,70.31,17.58,92.61,0,0-14.43-68.65-14.25-93.66.17-25.01,7.17-55.79,15.04-80.8,2.7-8.58,9.48-20.62,18.44-33.41,1.93-3.88,3.69-7.05,5.17-9.26-1.48,2.22-3.24,5.39-5.17,9.26,17.17-24.5,42.38-51.75,62.39-62.68,30.46-16.64,62.43-22.47,94.77-23.81,32.34-1.34,91.3,18.98,112.64,30.17,18.94,9.93,42.68,24.54,47.79,27.71.78-.87,1.56-1.75,2.35-2.63-7.58-6.33-40.91-32.63-87.3-46.86-53-16.26-93.34-14.85-146.1.58Z"/><path class="cls-53" d="M1089.88,513.53c9.58-20.73,17.18-45.39,21.12-70.33,3.94-24.94,7.08-45.63-2.36-91.02-3.77-18.12-10.36-36.78-17.72-53.79-16.65-27.36-39.38-51.63-56.08-66.02-19.21-16.54-52.79-35.62-93.71-41.72,10.14,3.07,18.68,6.04,18.68,6.04,0,0-8.55-2.97-18.68-6.04-1.92-.29-3.85-.55-5.8-.78-43.55-5.07-89.55.52-140.27,24.14-50.72,23.61-109.84,78.36-109.84,78.36,0,0,33.58-25.19,48.1-34.81,14.52-9.62,57.02-36.2,83.6-45.12,26.59-8.92,57.72-19.24,102.14-16.79,44.43,2.45,77.31,16.79,98.47,31.13,21.16,14.34,46.35,41.1,62.44,67.51,16.09,26.41,24.75,63.14,28.16,88.17,3.41,25.03-2.89,62.99-2.89,62.99,0,0,1.71-20.86,1.18-35.81-.52-14.95.39-24.92-11.94-70.05-12.33-45.12-41.98-81.07-77.92-105.73-35.94-24.66-82.12-30.43-128.99-27.55-7.27.45-14.54,1.29-21.75,2.45,20.25,1.09,45.6,4.95,64.6,8.75,21.86,4.37,51.6,13.12,81.68,39,30.08,25.89,50.2,62.79,56.32,82.99,6.12,20.2,16.27,71.1,10.32,110.8-1.81,12.1-5.23,23.9-9.1,34.48,11.9-22.82,17.84-61.41,17.84-61.41,0,0,.87,21.69-2.1,37.78-1.1,5.98-2.33,12.2-4.2,19.23,11.36-20.6,16.44-38.12,16.44-38.12-2.1,33.58-16.09,80.63-39.17,107.04-17.17,19.65-38.8,38.61-48.75,47.04-3.04,5.16-6.48,10.59-10.33,16.24,5.77-3.27,16.72-9.94,28.35-19.38,3.95-3.21,8-6.58,12.09-10.21,4.81-5.22,10.7-11.8,15.18-17.38,9.05-11.28,25.32-31.35,34.89-52.08Z"/><path class="cls-53" d="M505.46,170.48c33.55,5.22,63.66,16.16,93.17,30.59,26.11,12.77,54.57,32.81,60.79,37.26.89-.95,1.79-1.9,2.7-2.86-7.02-4.97-48.21-33.61-87.89-49.62-27.51-11.1-58.89-17.87-89.52-19.09-.07.07-.14.13-.21.2.07-.07.14-.13.21-.2-1.16-.05-2.32-.09-3.48-.12-.1.11-.2.21-.31.32.1-.11.2-.21.31-.32-3.13-.08-6.24-.1-9.34-.06-.13.13-.28.26-.41.38.13-.12.27-.26.41-.38-3.48.04-6.93.17-10.36.36,0,0-.02.02-.02.02,0,0,.01-.02.02-.02-2.88.16-5.74.38-8.57.65-.06.08-.13.17-.19.24.06-.08.13-.16.19-.24-1.87.18-3.73.39-5.58.61-.25.39-.38.59-.38.59,0,0,.13-.2.38-.59-4.93.61-9.79,1.38-14.54,2.34-15.4,3.11-26.7,5.77-35.41,8.22-.76,1.42-1.14,2.19-1.14,2.19,0,0,.38-.77,1.14-2.19-5.36,1.51-9.74,2.94-13.48,4.35-.62,1.07-.95,1.69-.95,1.69,0,0,.33-.62.95-1.69-7.79,2.93-12.83,5.77-18.27,9.03-6.19,3.71-12.66,7.96-19.24,12.74,13.43-6.34,43.21-20.16,58.46-25.38,20.07-6.86,67.03-14.25,100.58-9.03Z"/><path class="cls-53" d="M331.38,604.39c-13.64-15.74-40.58-52.3-53.87-81.15-13.29-28.86-14.34-53.26-14.34-53.26,0,0,2.97,18.1,14.69,45.04,11.72,26.93,36.77,64.1,55.01,85.09,18.23,20.99,67.29,59.07,80.89,67.07,13.6,8,32.53,14.87,32.53,14.87,0,0-15.92-8.75-26.59-16.09-10.67-7.35-40.4-31.13-59.29-51.42-18.89-20.29-44.34-54.57-52.86-72.54-8.53-17.97-22.17-52.6-25.97-69.65-3.8-17.05-10.1-53.26-8.13-78.97,1.97-25.71,5.64-40.8,14.04-65.72,8.4-24.92,14.69-36.2,30.7-58.11,16-21.91,42.5-43.81,62.7-53.26,20.2-9.44,56.14-22.96,79.36-25.45,23.22-2.49,52.47-1.18,52.47-1.18,0,0-20.07-4.2-33.71-3.94-13.64.26-28.73,1.84-47.62,7.35-18.89,5.51-47.62,18.36-47.62,18.36,26.89-16.66,58.64-24.66,80.67-27.28,22.04-2.62,56.8-4.72,56.8-4.72,0,0-35.02-8.92-62.05-6.17-27.02,2.75-69.65,17.58-103.89,36.25-22.05,12.02-40.49,25.5-50.84,33.59-16.02,18.41-30.17,40.54-39.28,66.59-20.2,57.72-17.32,119.37-7.35,167.91,9.97,48.54,39.09,94.97,67.95,125.67,15.99,17.01,35.77,34.42,58.04,50.04-17.41-14.89-42.7-37.66-52.45-48.91Z"/><path class="cls-53" d="M500.51,214.74c-12.18-1.1-25.78.76-38.06,3.36,25.74-3.07,47.33,1.68,47.33,1.68,0,0-7.36-.01-17.52.44,13.5,1.68,30.11,5.86,30.11,5.86-21.16-2.8-43.38.87-43.38.87,0,0,29.73,1.22,50.9,8.57,13.57,4.71,24.48,10.95,30.56,14.82,10.09,3.76,19,7.62,24.89,10.89,14.61,8.11,29.46,18.97,33.75,22.48,4.16-4.85,7.92-9.19,11.13-12.83-4.67-3.31-26.28-18.34-51.17-31.33-28.16-14.69-60.69-23.19-78.53-24.8Z"/><path class="cls-53" d="M1017.17,582.71c-1.19,2.33-2.36,4.55-3.5,6.63-1.24,2.26-2.57,4.6-3.97,6.99,9.95-8.42,31.58-27.39,48.75-47.04,23.08-26.41,37.07-73.46,39.17-107.04,0,0-5.08,17.51-16.44,38.12-3.16,11.88-8.15,26.07-17.48,45.31-11.63,23.95-36.33,47.79-46.53,57.03Z"/><path class="cls-53" d="M755.91,264.03c-23.35,17.05-66.11,55.09-86.45,76.61-20.33,21.51-57.46,63.1-75.16,81.46-17.71,18.36-60.6,50.24-94.14,67.69-29.06,15.12-53.97,23.33-60.1,25.26.68,1.14,1.37,2.28,2.07,3.42,7.21-2.55,44.37-16.02,70.81-31.44,29.38-17.14,65.76-44.95,83.78-63.49,18.01-18.54,62.61-68.91,81.85-87.97,19.24-19.06,59.12-52.3,87.63-72.41,28.51-20.11,79.41-42.85,122.96-43.73,43.55-.87,92.52,17.49,112.99,34.46,20.46,16.97,47.75,48.97,59.99,83.43,12.24,34.46,17.67,84.65,11.37,117.71-6.3,33.06-23.87,71.53-23.87,71.53,0,0,11.2-17.67,20.02-41.78-1.08,2.08-2.22,4.03-3.4,5.81,1.18-1.78,2.32-3.73,3.4-5.81,3.87-10.57,7.29-22.37,9.1-34.48,5.95-39.7-4.2-90.6-10.32-110.8-6.12-20.2-26.24-57.11-56.32-82.99-30.08-25.89-59.82-34.63-81.68-39-19-3.8-44.35-7.66-64.6-8.75-8.23,1.32-16.37,3.07-24.31,5.12-28.36,11.82-65.05,35.15-85.59,50.16Z"/><path class="cls-53" d="M474.1,208.15c-32.34,1.34-64.31,7.17-94.77,23.81-20.01,10.93-45.22,38.18-62.39,62.68-10.41,20.9-25.75,62.39-28.06,86.23-.49,5.02-.79,10.42-.92,16.07,1.72,22.07,6.59,60.21,10.54,76.45,4.72,19.41,19.24,54.74,32.18,76.61,12.94,21.86,42.5,53.43,54.57,63.58,7.9,6.64,18.63,14.86,25.09,19.74-11.7-11.1-21.59-22.28-21.59-22.28,0,0,28.68,25.36,46.17,36.55,12.32,7.88,29.74,18.27,38.98,23.74-.57-.47-1.15-.95-1.72-1.44-7.21-6.07-13.64-12.79-18.93-18.9-7.52-5.21-24.56-17.22-37.09-27.66-16.53-13.77-69.39-68.34-88.54-111.37-19.15-43.03-22.3-83.17-20.46-119.11,1.26-24.72,11.83-54.83,28.73-81.23,1.3-6.51,2.23-10.33,2.23-10.33,0,0-.93,3.82-2.23,10.33,7.67-11.98,16.64-23.21,26.63-32.81.17-.16.33-.31.5-.47,24.53-29.13,52.87-48.32,79.08-56.1,6.86-2.04,13.75-3.34,20.36-4.13,12.28-2.6,25.88-4.46,38.06-3.36,17.84,1.61,50.37,10.11,78.53,24.8,24.9,12.99,46.5,28.02,51.17,31.33,1.35-1.53,2.61-2.96,3.74-4.22.19-.21.37-.42.56-.63-5.11-3.16-28.85-17.77-47.79-27.71-21.34-11.19-80.3-31.51-112.64-30.17Z"/><path class="cls-53" d="M481.09,454.15c-32.43,18.49-55.91,22.4-61.61,23.11,1.8,3.95,3.81,8,5.99,12.15,6.37-2.55,27.09-11.02,38.83-17.78,13.99-8.05,53.52-32.71,72.06-50.9,18.54-18.19,44.25-44.6,63.66-71.43,19.41-26.83,40.58-55.2,57.37-72.51,16.79-17.32,58.59-56.84,90.95-75.91,32.36-19.06,67.69-34.11,101.97-35.16,34.28-1.05,74.16,11.72,74.16,11.72-27.46-2.97-49.32,3.5-49.32,3.5,0,0,26.24,1.22,40.58,3.32,6.65.97,16.62,3.72,25.39,6.38,40.92,6.1,74.5,25.18,93.71,41.72,16.71,14.38,39.44,38.66,56.08,66.02-11.08-25.6-23.93-47.48-31.6-58.15-12.77-17.75-23.52-26.24-31.13-33.32-7.61-7.08-32.61-24.9-51.29-31.91-18.68-7.01-62.05-18.37-97.2-19.25-35.16-.87-76.96,7.7-112.81,23.79-35.85,16.09-78.01,52.47-100.57,75.56-3.35,3.43-7.17,7.63-11.27,12.35,8.49-7.49,15.86-13.53,15.86-13.53,0,0-7.37,6.04-15.86,13.53-23.55,27.05-56.85,71.48-69.36,89.8-14.69,21.51-67.16,75.56-104.59,96.9Z"/><path class="cls-53" d="M875.15,180.95s21.86-6.47,49.32-3.5c0,0-39.88-12.77-74.16-11.72-34.28,1.05-69.61,16.09-101.97,35.16-32.36,19.06-74.16,58.59-90.95,75.91-16.79,17.32-37.95,45.68-57.37,72.51-19.41,26.83-45.12,53.24-63.66,71.43-18.54,18.19-58.07,42.85-72.06,50.9-11.74,6.75-32.47,15.22-38.83,17.78,2.9,5.54,6.1,11.24,9.51,17.08,5.71-2.42,32.57-13.83,51.71-21.92,21.51-9.09,59.47-35.07,77.31-57.63,17.84-22.56,62.96-77.39,99.96-108.61,36.99-31.22,73.98-57.46,101.79-73.72,18.57-10.86,45.77-23.01,75.76-30.74,3.87-1.61,7.59-3.02,11.08-4.15-3.5,1.13-7.21,2.54-11.08,4.15,7.95-2.05,16.08-3.79,24.31-5.12-3.06-.16-6-.27-8.79-.3,2.78.03,5.73.13,8.79.3,7.21-1.16,14.48-2,21.75-2.45,46.87-2.89,93.05,2.89,128.99,27.55,35.94,24.66,65.59,60.6,77.92,105.73,12.33,45.12,11.41,55.09,11.94,70.05.52,14.95-1.18,35.81-1.18,35.81,0,0,6.3-37.97,2.89-62.99-3.41-25.03-12.07-61.76-28.16-88.17-16.09-26.41-41.28-53.17-62.44-67.51-21.16-14.34-54.04-28.68-98.47-31.13-44.43-2.45-75.56,7.87-102.14,16.79-26.59,8.92-69.09,35.51-83.6,45.12-14.52,9.62-48.1,34.81-48.1,34.81,0,0,59.12-54.74,109.84-78.36,50.72-23.61,96.72-29.21,140.27-24.14,1.95.23,3.88.5,5.8.78-8.77-2.66-18.74-5.4-25.39-6.38-14.34-2.1-40.58-3.32-40.58-3.32Z"/><path class="cls-53" d="M1065.35,455.15c2.36-28.33,2.1-56.14-3.41-78.71-5.51-22.56-11.02-35.16-23.74-56.93-12.72-21.78-27.46-37.91-36.95-47.22-3.51-3.44-9.13-7.55-15.66-11.76l1.19,3.36s3.41,2.45,7.47,5.65c-.66-1.91-1.04-2.9-1.04-2.9,0,0,.38.99,1.04,2.9,1.96,1.55,4.08,3.26,6.04,4.97,1.16,1.01,3.41,3.3,6.35,6.55-.44-2.32-.69-3.64-.69-3.64,0,0,.25,1.32.69,3.64.94,1.04,1.95,2.18,3.02,3.42-.77-2.85-1.24-4.55-1.24-4.55,0,0,.47,1.69,1.24,4.55.86.99,1.75,2.04,2.68,3.14-.8-2.42-1.3-3.84-1.3-3.84,0,0,.49,1.42,1.3,3.84,13.08,15.53,32.4,41.76,39.89,65.33,1.3,4.08,2.44,8.25,3.45,12.5-.44-4-.87-7.4-1.27-9.96.39,2.57.83,5.96,1.27,9.96,7.41,31,7.58,65.92,3.89,96.38-3.11,25.63-17.28,65.77-31.46,97.77,3.75-5.47,10.72-16.21,15.85-27.46,7.35-16.13,19.02-48.67,21.38-77Z"/><path class="cls-53" d="M1050.4,366.17l-2.8,26.41c-2.8,26.41-9.09,67.16-23.44,108.44-14.34,41.28-50.02,112.99-78.36,149.02-28.33,36.03-125.18,91.13-184,91.65-56.91.5-127.46-19.28-131.99-20.57-.15-.04-.23-.07-.23-.07,0,0,.08.02.23.07,2.11.59,19.27,5,66.23,7.28,50.37,2.45,130.83-18.89,167.91-41.12,37.08-22.23,68.21-51.58,83.25-71.52,15.04-19.94,55.97-87.1,68.39-115.83,12.42-28.73,19.94-67.99,23.79-109.44,3.34-36.01-17.87-80.65-23.5-91.76,3.95,12.92,9.02,31.38,9.86,43.49,1.4,20.29,4.55,47.22-2.1,82.51-6.65,35.29-13.38,51.55-26.24,77.79-12.86,26.24-40.14,68.47-64.8,97.07-24.66,28.6-51.42,57.98-86.31,77.66-34.89,19.68-87.63,39.09-138.12,36.2-11.59-.66-23.11-2.18-34.46-4.36-7.08-.7-13.37-1.64-18.59-2.72,5.23,1.08,11.51,2.03,18.59,2.72-38.06-7.32-74.15-22.24-104.47-38.4-39.35-20.99-83.17-60.6-109.93-93.4-19.07-23.37-47.35-63.93-62.03-85.31,6.88,13.49,15.01,26.39,24.04,39.31,20.16,28.86,57.67,77.83,57.67,77.83,0,0,13.45,12.37,20,19.13,5.37,5.53,18.26,19.4,29.35,30.21,9.91,7.3,19.36,13.68,23.45,15.51,8.53,3.8,0,.66,0,.66,0,0-36.2-12.99-49.32-20.33-9.86-5.52-27.41-20-41.99-33.65,11.01,12.88,24.64,27.98,35.04,36.67,20.73,17.32,52.34,41.06,52.34,41.06-6.81-3.81-18.26-9.93-30.79-17.33-10.02-4.62-24.27-11.46-33.36-16.99-15.22-9.27-39.35-30.08-39.35-30.08,0,0,10.97,13.77,18.86,22.81,17.67,13.44,35.65,25.94,43.85,31.5,15.48,10.49,61.65,35.16,105.2,46.96,43.55,11.81,87.89,20.46,141.15,17.58,53.26-2.89,115.96-22.56,158.99-57.72,43.03-35.16,75.03-73.46,102.58-122.26,21.24-37.64,32.65-70.92,38.45-98.79.48-11.28,1.56-37.97,1.69-54.34.17-21.16-4.72-53.52-4.72-53.52Z"/><path class="cls-53" d="M1012.34,287.63c.88,2.66,2.14,6.52,3.53,11.09,5.63,11.11,26.84,55.75,23.5,91.76-3.85,41.45-11.37,80.71-23.79,109.44-12.42,28.73-53.35,95.89-68.39,115.83-15.04,19.94-46.17,49.29-83.25,71.52-37.08,22.23-117.53,43.57-167.91,41.12-46.96-2.28-64.12-6.69-66.23-7.28,4.53,1.29,75.09,21.07,131.99,20.57,58.82-.52,155.66-55.62,184-91.65,28.33-36.03,64.01-107.74,78.36-149.02,14.34-41.28,20.64-82.03,23.44-108.44l2.8-26.41s4.9,32.36,4.72,53.52c-.14,16.36-1.21,43.06-1.69,54.34,1.72-8.27,2.95-16.07,3.79-23.36,3.08-26.72.75-64.37-1.53-85.21-1.02-4.25-2.16-8.42-3.45-12.5-7.49-23.57-26.81-49.8-39.89-65.33Z"/><path class="cls-53" d="M1073.48,455.02c6.3-33.06.87-83.25-11.37-117.71-12.24-34.46-39.53-66.46-59.99-83.43-20.46-16.97-69.44-35.33-112.99-34.46-43.55.87-94.45,23.61-122.96,43.73-28.51,20.11-68.39,53.35-87.63,72.41-19.24,19.06-63.84,69.44-81.85,87.97-18.01,18.54-54.39,46.35-83.78,63.49-26.43,15.42-63.6,28.89-70.81,31.44,1.64,2.7,3.31,5.43,5,8.18.87,1.42,1.82,2.89,2.84,4.41,18.77-3.74,46.71-15.19,74.69-30.46,28.73-15.69,70.31-53.84,88.02-70.89,17.71-17.05,45.39-45.39,60.21-62.44,1.8-2.07,3.75-4.22,5.81-6.43-.95-.92-1.48-1.44-1.48-1.44,0,0,.53.52,1.48,1.44.96-1.03,1.94-2.06,2.94-3.11-.81-.77-1.27-1.22-1.27-1.22,0,0,.46.44,1.27,1.22,1.33-1.39,2.69-2.79,4.08-4.21-.92-.86-1.42-1.34-1.42-1.34,0,0,.5.47,1.42,1.34.93-.95,1.88-1.9,2.83-2.85-1.04-.96-1.63-1.5-1.63-1.5,0,0,.59.54,1.63,1.5,2.78-2.78,5.64-5.58,8.53-8.37-.54-.56-.85-.88-.85-.88,0,0,.31.32.85.88.9-.87,1.8-1.73,2.7-2.59-.5-.49-.8-.78-.8-.78,0,0,.29.29.8.78,5.43-5.18,10.86-10.22,15.92-14.83-.83-.78-1.28-1.21-1.28-1.21,0,0,.45.43,1.28,1.21,1.73-1.58,3.4-3.1,5.02-4.56-1.23-1.32-1.92-2.07-1.92-2.07,0,0,.69.75,1.92,2.07,1.82-1.64,3.55-3.2,5.18-4.67-.86-1.03-1.34-1.59-1.34-1.59,0,0,.47.57,1.34,1.59.56-.51,1.14-1.03,1.68-1.51,2.88-2.58,5.89-5.38,9.04-8.35-1.11-1.2-1.74-1.88-1.74-1.88,0,0,.63.68,1.74,1.88.66-.62,1.33-1.25,2-1.89-.94-1.01-1.46-1.57-1.46-1.57,0,0,.52.56,1.46,1.57.53-.51,1.07-1.01,1.62-1.53-.88-.7-1.37-1.09-1.37-1.09,0,0,.49.39,1.37,1.09,12.47-11.8,27.19-25.76,45.32-38.87,24.66-17.84,44.47-27.42,79.76-32.27,35.29-4.85,68.47,2.1,85,9.84,10.42,4.88,24.16,12.31,35.28,19.46l-.39-1.1.39,1.1c6.53,4.2,12.15,8.31,15.66,11.76,9.49,9.31,24.22,25.45,36.95,47.22,12.72,21.78,18.23,34.37,23.74,56.93,5.51,22.56,5.77,50.37,3.41,78.71-2.36,28.33-14.04,60.87-21.38,77-5.12,11.26-12.1,21.99-15.85,27.46-3.72,8.39-7.43,16.23-10.95,23.1,10.2-9.24,34.9-33.08,46.53-57.03,9.34-19.23,14.33-33.42,17.48-45.31-1.47,2.66-3.04,5.38-4.72,8.12,1.68-2.74,3.25-5.45,4.72-8.12,1.87-7.03,3.09-13.25,4.2-19.23,2.97-16.09,2.1-37.78,2.1-37.78,0,0-5.95,38.59-17.84,61.41-8.83,24.11-20.02,41.78-20.02,41.78,0,0,17.58-38.48,23.87-71.53Z"/><path class="cls-53" d="M535.27,404.78c-14.3,12.07-32.4,29.91-53.65,42.24-18.35,10.65-55.66,20.02-65.51,22.38,1.02,2.57,2.16,5.19,3.37,7.86,5.7-.72,29.19-4.63,61.61-23.11,37.43-21.34,89.9-75.38,104.59-96.9,12.51-18.32,45.81-62.75,69.36-89.8-7.88,6.95-16.72,15.16-21.52,20.97-6.22,7.52-18.24,22.13-26.42,32.07-6.67,9.86-16.63,24.19-22.51,30.9-9.44,10.76-35.02,41.32-49.32,53.39Z"/><path class="cls-53" d="M483.72,664.03c9.09,5.53,23.34,12.38,33.36,16.99-11.6-6.85-24.14-14.81-34.79-23.07-22.15-17.18-62.59-49.98-78.06-72.28-15.48-22.3-38.04-56.41-54.31-93.92-10.71-24.7-18.24-70.79-22.13-99.39.02,1.13.05,2.25.09,3.37,1.57,45.91,14.48,99.6,38.48,141.19,20.08,34.81,40.25,66.47,57.54,86.01,5.52,6.24,14.42,14.08,24.47,22.21-6.4-7.97-10.17-13.81-10.17-13.81,0,0,3.77,5.85,10.17,13.81,4.77,3.86,9.79,7.77,14.85,11.62-7.89-9.03-18.86-22.81-18.86-22.81,0,0,24.14,20.81,39.35,30.08Z"/><path class="cls-53" d="M560.45,250.34c3.4,2.16,5.3,3.59,5.3,3.59,0,0-1.9-1.43-5.3-3.59-19.59-7.3-43.66-14.25-58.89-15.87-20.8-2.21-52.09.7-75.61,8.2-.35.77-.78,1.73-1.28,2.86,9.39-2.85,33.6-7.81,59.05-6.99,28.51.92,45.65,6.78,71.71,16.75,23.16,8.86,51.95,30.27,58.09,34.93,1.92-2.25,3.78-4.43,5.57-6.51-4.29-3.51-19.15-14.36-33.75-22.48-5.89-3.27-14.79-7.13-24.89-10.89Z"/><path class="cls-53" d="M398.44,343.88c-1.38,9.28-2.87,20.46-3.14,27.32-.52,13.38.92,37.12,3.8,53.91,2.89,16.79,9.05,35.16,16.92,53.78,7.87,18.63,30.96,54.44,44.32,72.28,13.36,17.84,52.62,58.11,69.01,71.1,16.4,12.99,45.12,31.88,62.44,40.01,17.32,8.13,61.78,23.09,87.63,24.53,25.84,1.44,59.42-.26,87.63-8,28.2-7.74,55.75-20.46,74.11-30.7,15.32-8.54,31.93-18.18,50.72-35-4.22,2.6-6.6,3.69-6.6,3.69,0,0,2.38-1.09,6.6-3.69,3.73-3.34,7.55-6.96,11.46-10.91,21.8-22.04,45.76-57.19,49.31-62.47-.51-.1-1.07-.21-1.66-.33-7.58,10.85-28.86,38.62-45.25,54.84-16.97,16.79-48.45,42.06-78.62,57.54-30.17,15.48-80.28,30.3-107.56,31.22-27.28.92-61.65,1.05-107.04-15.74-45.39-16.79-82.25-46.83-101.01-64.8-17.56-16.82-46.72-49.16-61.57-71.41-.51.1-1.03.22-1.53.31.49-.09,1.02-.21,1.53-.31-1.01-1.52-1.96-3-2.84-4.41-1.69-2.75-3.36-5.47-5-8.18-.8.29-1.25.44-1.25.44,0,0,.45-.16,1.25-.44-.7-1.15-1.38-2.29-2.07-3.42-.95.3-1.46.45-1.46.45,0,0,.51-.15,1.46-.45-1.73-2.88-3.43-5.73-5.07-8.55-.71.3-1.11.47-1.11.47,0,0,.4-.17,1.11-.47-3.41-5.85-6.61-11.55-9.51-17.08-1.22.49-1.92.76-1.92.76,0,0,.7-.27,1.92-.76-2.18-4.15-4.19-8.2-5.99-12.15-.88.11-1.35.15-1.35.15,0,0,.47-.04,1.35-.15-1.22-2.67-2.35-5.29-3.37-7.86-1.56.37-2.44.57-2.44.57,0,0,.88-.2,2.44-.57-.28-.7-.54-1.4-.8-2.09-.79.2-1.24.3-1.24.3,0,0,.45-.11,1.24-.3-.19-.51-.4-1.03-.58-1.53-.3-.83-.62-1.71-.93-2.62-.59.09-.91.13-.91.13,0,0,.31-.04.91-.13-.77-2.21-1.58-4.63-2.4-7.24-1.05.15-1.66.24-1.66.24,0,0,.6-.08,1.66-.24-.42-1.34-.85-2.72-1.27-4.15-1.14.18-1.78.28-1.78.28,0,0,.64-.1,1.78-.28-.54-1.81-1.08-3.69-1.62-5.62-1.13.09-1.73.13-1.73.13,0,0,.6-.04,1.73-.13-.27-.98-.55-1.97-.82-2.97-.6-.01-1.2-.02-1.79-.05.59.03,1.19.04,1.79.05-4.93-18.28-9.52-41.28-10.14-62.27-.35-11.76-.04-24.47.91-37.02Z"/><path class="cls-53" d="M665.43,237.96c-29.22,29.02-66.8,75.4-66.8,75.4,0,0,20.55-19.33,31.94-31.82,11.39-12.5,32.94-37.79,43.44-47.32,10.49-9.53,34.63-32.62,59.76-49.31,25.13-16.69,67.66-30.35,67.66-30.35,0,0-28.22,4.28-53.82,18.78-25.6,14.49-52.96,35.62-82.18,64.64Z"/><path class="cls-53" d="M470.6,610.33s11.28,12.2,16.4,17.45c5.12,5.25,23.87,23.09,23.87,23.09,0,0-12.53-7.41-23.48-16.33-8.24-6.71-23.97-22.68-36.51-35.98,7.43,9.58,14.33,18.13,19.72,24.37-5.39-6.25-12.29-14.79-19.72-24.37-4.13-4.38-7.91-8.46-10.97-11.83-12.36-13.62-47.7-62.96-47.7-62.96,3.45,9.31,13.07,25.45,19.58,37.39,6.5,11.94,20.39,30.56,35.61,46.57,3.78,3.98,8.28,8.4,13.1,12.92-10.93-12.8-19.27-23.41-19.27-23.41,0,0,8.34,10.62,19.27,23.41,14.58,13.65,32.13,28.13,41.99,33.65,13.12,7.35,49.32,20.33,49.32,20.33,0,0,8.53,3.15,0-.66-4.09-1.82-13.55-8.2-23.45-15.51,2.47,2.4,4.84,4.66,7.03,6.63-2.18-1.97-4.56-4.23-7.03-6.63-10.76-7.93-22.04-16.94-27.57-22.4-10.63-10.49-30.17-25.71-30.17-25.71Z"/><path class="cls-53" d="M469.47,186.13c3.27-.22,6.43-.36,9.52-.42,13.64-.26,33.71,3.94,33.71,3.94,0,0-29.25-1.31-52.47,1.18-4.57.49-9.64,1.41-14.98,2.64-6.06,2.35-13.88,5.55-21.28,9.07,25.55-7.96,51.34-10.76,88.95-7.95,39.88,2.97,72.76,21.43,90.16,32.01,15.28,9.29,36.37,24.72,41.27,28.34,2.8-3.16,5.66-6.37,8.59-9.6-8.03-4.89-41.05-24.9-65.08-37.72-26.94-14.37-79.17-26.27-118.4-21.49Z"/><path class="cls-53" d="M598.63,201.06c-29.51-14.43-59.62-25.36-93.17-30.59-33.55-5.22-80.51,2.17-100.58,9.03-15.25,5.22-45.03,19.04-58.46,25.38-14.1,10.23-28.67,22.94-41.96,38.21,10.35-8.08,28.79-21.57,50.84-33.59,34.24-18.67,76.87-33.49,103.89-36.25,27.02-2.75,62.05,6.17,62.05,6.17,0,0-34.76,2.1-56.8,4.72-22.04,2.62-53.78,10.63-80.67,27.28,0,0,28.73-12.86,47.62-18.36,14.61-4.26,26.94-6.16,38.09-6.93,39.23-4.78,91.46,7.12,118.4,21.49,24.04,12.82,57.05,32.82,65.08,37.72,2.11-2.32,4.26-4.66,6.46-7.01-6.22-4.45-34.67-24.5-60.79-37.26Z"/><path class="cls-53" d="M1055.69,365.46c2.28,20.84,4.61,58.49,1.53,85.21-.84,7.29-2.07,15.09-3.79,23.36-.14,3.31-.23,5.31-.23,5.31,0,0,.09-2,.23-5.31-5.8,27.87-17.2,61.16-38.45,98.79-27.55,48.8-59.55,87.1-102.58,122.26-43.03,35.16-105.73,54.83-158.99,57.72-53.26,2.89-97.6-5.77-141.15-17.58-43.55-11.81-89.72-36.47-105.2-46.96-8.19-5.56-26.17-18.06-43.85-31.5,1.35,1.54,2.61,2.95,3.71,4.13-1.1-1.17-2.36-2.58-3.71-4.13-5.05-3.84-10.08-7.76-14.85-11.62,1.49,1.85,3.12,3.81,4.87,5.85,2.4,1.66,3.84,2.64,3.84,2.64,0,0-1.44-.98-3.84-2.64,5.28,6.11,11.72,12.83,18.93,18.9.57.48,1.15.96,1.72,1.44,3.88,2.29,6.32,3.72,6.32,3.72,0,0-2.44-1.43-6.32-3.72,4.78,3.96,9.57,7.62,14.08,10.91,1.04.42,2.02.79,2.91,1.1-.9-.31-1.87-.68-2.91-1.1,13.77,10.04,24.87,16.51,24.87,16.51-21.51-6.03-84.22-36.2-109.66-55.36-25.45-19.15-65.85-59.64-81.59-84.65-15.74-25.01-30.61-62.96-34.81-78.53-4.2-15.57-10.32-46.35-11.02-63.66-.7-17.32-.17-48.45,10.49-79.23,10.67-30.78,17.32-39.53,25.19-52.47,7.87-12.94,25.54-34.46,43.03-47.05,17.49-12.59,37.78-24.66,64.89-33.76,1.54-.52,3.08-1.01,4.62-1.49,7.4-3.52,15.23-6.72,21.28-9.07-21.79,5.02-48.16,15.22-64.39,22.81-20.2,9.44-46.7,31.35-62.7,53.26-16,21.91-22.3,33.19-30.7,58.11-8.4,24.92-12.07,40.01-14.04,65.72-1.97,25.71,4.33,61.92,8.13,78.97,3.8,17.05,17.45,51.68,25.97,69.65,8.53,17.97,33.97,52.25,52.86,72.54,18.89,20.29,48.62,44.08,59.29,51.42,10.67,7.35,26.59,16.09,26.59,16.09,0,0-18.93-6.86-32.53-14.87-13.6-8-62.66-46.09-80.89-67.07-18.23-20.99-43.29-58.15-55.01-85.09-11.72-26.93-14.69-45.04-14.69-45.04,0,0,1.05,24.4,14.34,53.26,13.29,28.86,40.23,65.41,53.87,81.15,9.75,11.25,35.04,34.02,52.45,48.91,17.92,12.57,37.45,24,57.92,33.12,45.91,20.46,124.88,42.5,124.88,42.5,0,0,85,30.17,146.39,32.27,61.39,2.1,145.87-13.9,197.55-54.83,40.03-31.7,69.5-65.43,88.81-93.78-2.68,1.52-4.24,2.31-4.24,2.31,0,0,1.57-.79,4.24-2.31,3.85-5.65,7.28-11.08,10.33-16.24-3.42,2.9-5.47,4.56-5.47,4.56,0,0,2.05-1.66,5.47-4.56,1.41-2.39,2.74-4.72,3.97-6.99,1.14-2.09,2.31-4.31,3.5-6.63-2.83,2.57-4.55,4.01-4.55,4.01,0,0,1.72-1.44,4.55-4.01,3.52-6.87,7.24-14.7,10.95-23.1-1.63,2.37-2.65,3.76-2.65,3.76,0,0,1.02-1.39,2.65-3.76,14.18-32.01,28.35-72.14,31.46-97.77,3.69-30.46,3.52-65.38-3.89-96.38Z"/><path class="cls-53" d="M567.93,359.13s13.77-16,20.59-23.61c6.82-7.61,17.45-23.74,17.45-23.74,0,0-27.94,30.3-37.78,42.24-9.84,11.94-19.94,23.44-30.17,34.19-10.23,10.76-27.63,28.25-42.59,38.39-14.95,10.14-26.67,15.65-41.98,20.64-13.1,4.27-35.8,7.76-42.07,8.68.82,2.61,1.62,5.03,2.4,7.24,3.69-.55,18.65-3.16,42.38-12.2,27.55-10.49,48.14-25.84,63.36-39.22,15.22-13.38,47.75-46.96,47.75-46.96,0,0,14.63-17.32,21.74-26.53-8.4,8.3-21.08,20.89-21.08,20.89Z"/><path class="cls-53" d="M593.9,333.42c-1.27,1.25-2.97,2.92-4.89,4.82-7.11,9.21-21.74,26.53-21.74,26.53,0,0-17.45,26.24-43.03,46.57-25.58,20.33-37.39,31.74-57.72,40.14-17.98,7.42-45.18,14.33-51.23,15.83.26.7.52,1.39.8,2.09,9.85-2.36,47.17-11.74,65.51-22.38,21.25-12.33,39.35-30.17,53.65-42.24,14.3-12.07,39.88-42.63,49.32-53.39,5.88-6.7,15.84-21.04,22.51-30.9-4.94,6-8.47,10.3-8.47,10.3,0,0,3.54-4.3,8.47-10.3,4.04-5.97,6.87-10.29,6.87-10.29,0,0-13.25,16.53-20.07,23.22Z"/></g></g></g></svg>